<?xml version="1.0" encoding="UTF-8"?>
<svg version="1.1" xmlns="http://www.w3.org/2000/svg" width="162" height="148">
<path d="M0 0 C13.8931689 11.55976022 23.77453498 27.45043573 25.84033203 45.50146484 C27.3121776 63.0419391 26.36671014 80.55276532 15.2109375 94.99609375 C3.73271439 108.32358614 -12.40912203 117.32805975 -29.9765625 119.68359375 C-46.93927513 120.67134409 -64.29397841 119.29277363 -77.6640625 107.87109375 C-81.09885255 104.65361906 -84.26510834 101.27314085 -87.29296875 97.671875 C-88.41336448 96.34871624 -89.56766085 95.05352189 -90.75390625 93.7890625 C-101.01349023 82.76618343 -104.51911393 71.45482708 -104.15234375 56.6953125 C-103.39450322 36.92171881 -94.209336 16.42477474 -79.9765625 2.68359375 C-77.06907631 0.20943483 -74.07242108 -2.08478353 -70.9765625 -4.31640625 C-70.31527344 -4.85007812 -69.65398437 -5.38375 -68.97265625 -5.93359375 C-54.26164315 -16.12478482 -13.8283334 -9.51050685 0 0 Z " fill="#F686AE" transform="translate(122.9765625,17.31640625)"/>
<path d="M0 0 C1.28874023 -0.03673828 1.28874023 -0.03673828 2.60351562 -0.07421875 C8.92064067 -0.10362352 8.92064067 -0.10362352 12.05078125 2.23046875 C15.37490111 6.94608064 17.23221372 10.87268515 17.0546875 16.671875 C15.68720645 24.18216775 11.85343071 32.12082153 7.5625 38.375 C6.9025 38.375 6.2425 38.375 5.5625 38.375 C5.5625 39.035 5.5625 39.695 5.5625 40.375 C3.98828125 41.48828125 3.98828125 41.48828125 1.875 42.6875 C-1.1017979 44.42570017 -2.61546726 45.58947336 -4.875 48.3125 C-7.4375 50.375 -7.4375 50.375 -9.53125 50.3828125 C-14.64751683 49.4107218 -18.20003865 47.4017581 -22.4375 44.375 C-24.05754054 43.63487996 -25.68307672 42.90672793 -27.3125 42.1875 C-33.87369254 38.99610423 -39.79961891 33.30851313 -42.4375 26.375 C-42.88676991 23.61282202 -43.26319368 20.90217009 -43.5625 18.125 C-43.64886719 17.37992188 -43.73523437 16.63484375 -43.82421875 15.8671875 C-44.03536867 14.03722154 -44.23734545 12.20620121 -44.4375 10.375 C-41.74149588 8.73176489 -39.0880455 7.20369877 -36.25 5.8125 C-33.38998607 4.5326996 -33.38998607 4.5326996 -31.4375 2.375 C-28.38283644 1.80487615 -25.49552526 1.83785122 -22.4375 2.375 C-19.6875 4.75 -19.6875 4.75 -17.4375 7.375 C-14.77216965 8.694018 -14.77216965 8.694018 -12.4375 9.375 C-12.499375 8.26125 -12.56125 7.1475 -12.625 6 C-12.5321875 4.205625 -12.5321875 4.205625 -12.4375 2.375 C-8.28216695 -0.39522203 -4.88335149 0.00729403 0 0 Z " fill="#FEFDFD" transform="translate(97.4375,45.625)"/>
<path d="M0 0 C2 3 2 3 1.625 5.6875 C1.41875 6.450625 1.2125 7.21375 1 8 C0.34 8 -0.32 8 -1 8 C-1.33 15.59 -1.66 23.18 -2 31 C-2.33 31 -2.66 31 -3 31 C-3.2403343 20.47869822 -3.3721244 10.11637319 0 0 Z " fill="#EFC7D8" transform="translate(22,55)"/>
<path d="M0 0 C0.99 0 1.98 0 3 0 C4.77706209 2.66559313 5.87548273 5.0280615 7 8 C6.01 8.33 5.02 8.66 4 9 C0 3.375 0 3.375 0 0 Z " fill="#F8AEC8" transform="translate(51,69)"/>
<path d="M0 0 C0 3 0 3 -1.75 4.82421875 C-2.4925 5.43910156 -3.235 6.05398437 -4 6.6875 C-4.7425 7.31011719 -5.485 7.93273437 -6.25 8.57421875 C-6.8275 9.04472656 -7.405 9.51523438 -8 10 C-8 7 -8 7 -6.25 5.17578125 C-5.5075 4.56089844 -4.765 3.94601563 -4 3.3125 C-3.2575 2.68988281 -2.515 2.06726563 -1.75 1.42578125 C-1.1725 0.95527344 -0.595 0.48476562 0 0 Z " fill="#FCE0EA" transform="translate(99,89)"/>
</svg>
