<?xml version="1.0" encoding="UTF-8"?>
<svg version="1.1" xmlns="http://www.w3.org/2000/svg" width="348" height="132">
<path d="M0 0 C114.84 0 229.68 0 348 0 C348 43.56 348 87.12 348 132 C233.16 132 118.32 132 0 132 C0 88.44 0 44.88 0 0 Z " fill="#FEFDFD" transform="translate(0,0)"/>
<path d="M0 0 C2.9473956 0.33036742 3.86365237 0.83902183 5.81640625 3.14453125 C6.39261719 4.02496094 6.96882812 4.90539062 7.5625 5.8125 C8.43068359 7.12154297 8.43068359 7.12154297 9.31640625 8.45703125 C9.87199219 9.29621094 10.42757812 10.13539062 11 11 C11.56589844 11.68449219 12.13179687 12.36898438 12.71484375 13.07421875 C14 15 14 15 14 19 C7.375 23 7.375 23 4 23 C4 23.66 4 24.32 4 25 C5.010625 25.185625 6.02125 25.37125 7.0625 25.5625 C11.92651732 26.90258641 14.75505217 30.31121432 18 34 C18.81415767 32.52174509 19.6261422 31.0422935 20.4375 29.5625 C21.25154297 28.08330078 21.25154297 28.08330078 22.08203125 26.57421875 C23.52742177 23.91424013 24.90307709 21.22479119 26.26171875 18.51953125 C26.65238525 17.7524585 27.04305176 16.98538574 27.44555664 16.19506836 C28.22536966 14.66110787 28.99431361 13.12156823 29.75170898 11.57641602 C30.29613647 10.5137854 30.29613647 10.5137854 30.8515625 9.4296875 C31.16947754 8.79272949 31.48739258 8.15577148 31.81494141 7.49951172 C33.3518009 5.55484938 34.59995107 5.36745057 37 5 C37.83819158 6.62249941 38.6704116 8.24808497 39.5 9.875 C39.9640625 10.77992187 40.428125 11.68484375 40.90625 12.6171875 C42 15 42 15 42 17 C42.81339844 16.7834375 43.62679687 16.566875 44.46484375 16.34375 C57.29648225 13.22605156 70.95918455 11.37311385 83 18 C83.4021875 16.8553125 83.4021875 16.8553125 83.8125 15.6875 C84.97752524 13.05086394 85.689663 11.68024509 88 10 C92.02736357 9.16818653 96.16609801 9.1747441 99.953125 10.87890625 C103.02750349 13.13991762 103.98917553 14.95814538 104.9375 18.625 C105 22 105 22 104 25 C103.6505524 27.92093408 103.34040189 30.83390715 103.0625 33.76171875 C102.93500366 35.0586541 102.93500366 35.0586541 102.80493164 36.38179016 C102.53334731 39.15005183 102.26646269 41.91874105 102 44.6875 C101.73271012 47.43831819 101.46442115 50.18903454 101.19506836 52.93965149 C101.02782873 54.65028105 100.86189954 56.36103941 100.69750977 58.07194519 C100.47313169 60.38219476 100.23712407 62.69102956 100 65 C99.93055176 65.75713287 99.86110352 66.51426575 99.78955078 67.29434204 C99.22601 72.77399 99.22601 72.77399 97 75 C90.72392691 75.623381 84.1927211 75.12594929 78 74 C77.34 73.34 76.68 72.68 76 72 C76.1570987 69.05069414 76.4245896 66.23228065 76.8125 63.3125 C76.90853516 62.52166016 77.00457031 61.73082031 77.10351562 60.91601562 C77.67531952 56.26866987 78.3239374 51.63319966 79 47 C77.02 48.32 75.04 49.64 73 51 C73.2165625 52.17755859 73.2165625 52.17755859 73.4375 53.37890625 C74.00313096 56.58022036 74.50871548 59.78651602 75 63 C75.20625 64.299375 75.4125 65.59875 75.625 66.9375 C75 70 75 70 73.2109375 71.53125 C71.18528769 72.81964917 69.15945536 73.95401381 67 75 C67.309375 75.86625 67.61875 76.7325 67.9375 77.625 C68.92491899 80.76150738 69.53581059 83.75067413 70 87 C64.94752447 88.61626656 60.3985816 89.34166823 55.0625 89.625 C54.37865234 89.66367188 53.69480469 89.70234375 52.99023438 89.7421875 C51.32720487 89.83522412 49.66364153 89.91863787 48 90 C43.91498823 84.48332522 41.41768873 78.42198618 38.75 72.125 C38.29109375 71.05507812 37.8321875 69.98515625 37.359375 68.8828125 C36.23421778 66.25744565 35.11461546 63.62985557 34 61 C31.72055475 62.99405436 31.72055475 62.99405436 30.75 66.5 C28.63076221 72.43386582 25.47855075 78.52144925 21 83 C18.66162109 83.22705078 18.66162109 83.22705078 15.7734375 83.1953125 C14.7421875 83.18886719 13.7109375 83.18242188 12.6484375 83.17578125 C11.56820312 83.15902344 10.48796875 83.14226562 9.375 83.125 C8.28703125 83.11597656 7.1990625 83.10695313 6.078125 83.09765625 C3.38519848 83.07403409 0.69270745 83.04109556 -2 83 C-2 84.65 -2 86.3 -2 88 C-4.46036508 88.91904688 -6.25954196 89.27208862 -8.76464844 88.3515625 C-10.83982957 87.29333653 -12.85786887 86.16511253 -14.875 85 C-16.37976803 84.16482168 -17.88632002 83.33285046 -19.39453125 82.50390625 C-20.15588379 82.08383301 -20.91723633 81.66375977 -21.70166016 81.23095703 C-25.25772293 79.32638209 -28.89705454 77.61953318 -32.5625 75.9375 C-33.53582275 75.48987305 -33.53582275 75.48987305 -34.52880859 75.03320312 C-36.01748198 74.35169081 -37.50845776 73.67521053 -39 73 C-38.97679687 73.84304687 -38.95359375 74.68609375 -38.9296875 75.5546875 C-38.91164063 76.65039062 -38.89359375 77.74609375 -38.875 78.875 C-38.85179687 79.96554688 -38.82859375 81.05609375 -38.8046875 82.1796875 C-39 85 -39 85 -41 87 C-47.59963582 88.64483231 -54.21989344 89.26077333 -61 89 C-61.33 87.35 -61.66 85.7 -62 84 C-62.52207031 84.28875 -63.04414062 84.5775 -63.58203125 84.875 C-69.74541872 87.98367879 -75.12847535 89.02916935 -82 88 C-86.90316069 86.30519215 -90.06356734 83.22846303 -93 79 C-92.67 80.134375 -92.34 81.26875 -92 82.4375 C-90.84152933 86.99795849 -90.80506709 91.32161006 -91 96 C-93.37011238 97.01317781 -95.74499383 98.01055923 -98.125 99 C-98.79015625 99.28617187 -99.4553125 99.57234375 -100.140625 99.8671875 C-104.17996509 101.53044518 -107.56413239 102.72002489 -112 102 C-115.09729396 98.68046464 -116.70774543 94.52862889 -118.50390625 90.41796875 C-118.82785873 89.68556473 -119.15181122 88.95316071 -119.48558044 88.19856262 C-120.16795772 86.65228439 -120.8477607 85.10486787 -121.52514648 83.55639648 C-122.55573584 81.20294661 -123.59656608 78.85422867 -124.63867188 76.50585938 C-125.30270435 74.9976691 -125.96613544 73.48921388 -126.62890625 71.98046875 C-126.93727921 71.28543747 -127.24565216 70.59040619 -127.56336975 69.87431335 C-129.40625847 65.64094363 -130.8253298 61.46650811 -132 57 C-134.97 57.495 -134.97 57.495 -138 58 C-139.62723025 55.41804795 -141.25185205 52.83451657 -142.875 50.25 C-143.33519531 49.52039063 -143.79539062 48.79078125 -144.26953125 48.0390625 C-144.71425781 47.33007812 -145.15898437 46.62109375 -145.6171875 45.890625 C-146.02565918 45.24125977 -146.43413086 44.59189453 -146.85498047 43.92285156 C-150.02060023 38.60677028 -150.02060023 38.60677028 -149.9140625 35.46875 C-147.70850329 29.51185504 -140.07586783 26.97214937 -134.671875 24.44140625 C-123.24201909 19.99786094 -110.14043598 18.67536875 -98.23828125 22.07421875 C-91.31309384 25.24572867 -85.45140885 30.0971823 -82 37 C-81.86584528 39.6723621 -81.95681459 42.32250488 -82 45 C-81.05125 44.67 -80.1025 44.34 -79.125 44 C-74.44552744 42.6355542 -69.83176241 42.82500659 -65 43 C-65 42.34 -65 41.68 -65 41 C-66.65 41 -68.3 41 -70 41 C-70 35.72 -70 30.44 -70 25 C-65.29344685 22.98290579 -61.03755535 21.3091258 -56.1875 19.875 C-51.99864582 18.67746697 -51.99864582 18.67746697 -48 17 C-46.02332771 17 -44.04607095 17.00240088 -42.0703125 17.0625 C-39.96927474 17.12107052 -39.96927474 17.12107052 -38.05859375 16.19921875 C-36 16 -36 16 -33.52734375 18.01953125 C-32.67269531 18.94121094 -31.81804687 19.86289062 -30.9375 20.8125 C-28.34052275 23.58130732 -26.1637322 25.8908452 -23 28 C-21.68 28 -20.36 28 -19 28 C-19.09152344 27.11699219 -19.18304688 26.23398437 -19.27734375 25.32421875 C-18.91923111 21.03191096 -17.56774492 19.83604169 -14.5625 16.8125 C-13.65886719 15.8740625 -12.75523437 14.935625 -11.82421875 13.96875 C-11.35677246 13.48535156 -10.88932617 13.00195312 -10.40771484 12.50390625 C-6.70159629 8.54454269 -3.38767966 4.23050817 0 0 Z " fill="#435C8F" transform="translate(191,18)"/>
<path d="M0 0 C-0.33 0.66 -0.66 1.32 -1 2 C-3.36801246 2.23325809 -5.74676635 2.36070772 -8.125 2.4375 C-13.76931815 2.68622142 -17.95337103 3.47668551 -23 6 C-25.9375 6.1875 -25.9375 6.1875 -28 6 C-27.7834375 6.90492187 -27.7834375 6.90492187 -27.5625 7.828125 C-27.376875 8.62734375 -27.19125 9.4265625 -27 10.25 C-26.814375 11.03890625 -26.62875 11.8278125 -26.4375 12.640625 C-26 15 -26 15 -26 19 C-24.35 19 -22.7 19 -21 19 C-20.86424561 19.64437012 -20.72849121 20.28874023 -20.58862305 20.95263672 C-19.95925325 23.92769412 -19.32341253 26.90133452 -18.6875 29.875 C-18.47416016 30.88820313 -18.26082031 31.90140625 -18.04101562 32.9453125 C-16.65430132 39.40284775 -15.00715278 45.70725765 -13 52 C-10.36 52 -7.72 52 -5 52 C-5 49.69 -5 47.38 -5 45 C-4.01 45.33 -3.02 45.66 -2 46 C-1.67 48.31 -1.34 50.62 -1 53 C-3.64 54.65 -6.28 56.3 -9 58 C-8.56775791 60.59345253 -8.11816884 62.76366233 -6.9375 65.125 C-6 67 -6 67 -6 70 C-8.475 70.495 -8.475 70.495 -11 71 C-11 71.66 -11 72.32 -11 73 C-15.95 73.33 -20.9 73.66 -26 74 C-28.73246453 69.90130321 -30.70694203 66.76531997 -32.578125 62.3828125 C-33.01640625 61.36445312 -33.4546875 60.34609375 -33.90625 59.296875 C-34.3496875 58.25015625 -34.793125 57.2034375 -35.25 56.125 C-35.70890625 55.05507812 -36.1678125 53.98515625 -36.640625 52.8828125 C-37.76578222 50.25744565 -38.88538454 47.62985557 -40 45 C-42.27944525 46.99405436 -42.27944525 46.99405436 -43.25 50.5 C-45.36923779 56.43386582 -48.52144925 62.52144925 -53 67 C-55.33837891 67.22705078 -55.33837891 67.22705078 -58.2265625 67.1953125 C-59.2578125 67.18886719 -60.2890625 67.18242188 -61.3515625 67.17578125 C-62.43179688 67.15902344 -63.51203125 67.14226562 -64.625 67.125 C-65.71296875 67.11597656 -66.8009375 67.10695313 -67.921875 67.09765625 C-70.61480152 67.07403409 -73.30729255 67.04109556 -76 67 C-76 68.65 -76 70.3 -76 72 C-78.46036508 72.91904688 -80.25954196 73.27208862 -82.76464844 72.3515625 C-84.83982957 71.29333653 -86.85786887 70.16511253 -88.875 69 C-90.37976803 68.16482168 -91.88632002 67.33285046 -93.39453125 66.50390625 C-94.15588379 66.08383301 -94.91723633 65.66375977 -95.70166016 65.23095703 C-99.25772293 63.32638209 -102.89705454 61.61953318 -106.5625 59.9375 C-107.53582275 59.48987305 -107.53582275 59.48987305 -108.52880859 59.03320312 C-110.01748198 58.35169081 -111.50845776 57.67521053 -113 57 C-112.97679687 57.84304687 -112.95359375 58.68609375 -112.9296875 59.5546875 C-112.91164063 60.65039062 -112.89359375 61.74609375 -112.875 62.875 C-112.85179687 63.96554688 -112.82859375 65.05609375 -112.8046875 66.1796875 C-113 69 -113 69 -115 71 C-121.59963582 72.64483231 -128.21989344 73.26077333 -135 73 C-135.33 71.35 -135.66 69.7 -136 68 C-136.52207031 68.28875 -137.04414063 68.5775 -137.58203125 68.875 C-143.74541872 71.98367879 -149.12847535 73.02916935 -156 72 C-160.90316069 70.30519215 -164.06356734 67.22846303 -167 63 C-166.67 64.134375 -166.34 65.26875 -166 66.4375 C-164.84152933 70.99795849 -164.80506709 75.32161006 -165 80 C-167.37011238 81.01317781 -169.74499383 82.01055923 -172.125 83 C-172.79015625 83.28617187 -173.4553125 83.57234375 -174.140625 83.8671875 C-178.17996509 85.53044518 -181.56413239 86.72002489 -186 86 C-189.09729396 82.68046464 -190.70774543 78.52862889 -192.50390625 74.41796875 C-192.82785873 73.68556473 -193.15181122 72.95316071 -193.48558044 72.19856262 C-194.16795772 70.65228439 -194.8477607 69.10486787 -195.52514648 67.55639648 C-196.55573584 65.20294661 -197.59656608 62.85422867 -198.63867188 60.50585938 C-199.30270435 58.9976691 -199.96613544 57.48921388 -200.62890625 55.98046875 C-200.93727921 55.28543747 -201.24565216 54.59040619 -201.56336975 53.87431335 C-203.40625847 49.64094363 -204.8253298 45.46650811 -206 41 C-208.97 41.495 -208.97 41.495 -212 42 C-213.62723025 39.41804795 -215.25185205 36.83451657 -216.875 34.25 C-217.33519531 33.52039063 -217.79539062 32.79078125 -218.26953125 32.0390625 C-218.71425781 31.33007812 -219.15898437 30.62109375 -219.6171875 29.890625 C-220.02565918 29.24125977 -220.43413086 28.59189453 -220.85498047 27.92285156 C-224.02060023 22.60677028 -224.02060023 22.60677028 -223.9140625 19.46875 C-221.70850329 13.51185504 -214.07586783 10.97214937 -208.671875 8.44140625 C-197.24201909 3.99786094 -184.14043598 2.67536875 -172.23828125 6.07421875 C-165.31309384 9.24572867 -159.45140885 14.0971823 -156 21 C-155.86584528 23.6723621 -155.95681459 26.32250488 -156 29 C-155.05125 28.67 -154.1025 28.34 -153.125 28 C-148.44552744 26.6355542 -143.83176241 26.82500659 -139 27 C-139 26.34 -139 25.68 -139 25 C-140.65 25 -142.3 25 -144 25 C-144 19.72 -144 14.44 -144 9 C-139.62524627 7.12510554 -135.80898684 5.50722029 -131.3125 4.25 C-130.40113281 3.98703125 -129.48976563 3.7240625 -128.55078125 3.453125 C-126 3 -126 3 -122 4 C-128.6 6.31 -135.2 8.62 -142 11 C-142 14.96 -142 18.92 -142 23 C-140.68 23 -139.36 23 -138 23 C-138 24.98 -138 26.96 -138 29 C-142.62 29.33 -147.24 29.66 -152 30 C-152.66 31.65 -153.32 33.3 -154 35 C-155.65625 36.66015625 -155.65625 36.66015625 -157.5 38.0625 C-160.22622251 40.14759815 -161.80991402 41.74322812 -163 45 C-163.35316854 47.91123139 -163.35316854 47.91123139 -163.3125 51 C-163.32925781 52.03125 -163.34601563 53.0625 -163.36328125 54.125 C-162.95687658 57.34127783 -162.05544887 58.57034013 -160 61 C-160 61.66 -160 62.32 -160 63 C-154.89127608 64.99364836 -150.35204669 66.08697436 -144.98828125 64.34765625 C-139.78002522 62.03618262 -136.16872621 58.72567819 -133 54 C-132.67 53.01 -132.34 52.02 -132 51 C-131.34 51 -130.68 51 -130 51 C-130 47.7 -130 44.4 -130 41 C-127.98303778 44.02544334 -127.74188904 44.61067382 -127.8125 48 C-127.81894531 48.680625 -127.82539063 49.36125 -127.83203125 50.0625 C-128 52 -128 52 -129 55 C-129.22179785 56.89212737 -129.40614015 58.78884472 -129.5625 60.6875 C-129.68818359 62.17830078 -129.68818359 62.17830078 -129.81640625 63.69921875 C-129.87699219 64.45847656 -129.93757813 65.21773438 -130 66 C-125.05 65.505 -125.05 65.505 -120 65 C-120 58.73 -120 52.46 -120 46 C-115.4415675 47.5194775 -111.6326419 49.07181433 -107.39453125 51.22265625 C-106.7886467 51.52819931 -106.18276215 51.83374237 -105.55851746 52.14854431 C-103.64121181 53.11603182 -101.72669471 54.08887392 -99.8125 55.0625 C-97.88724112 56.03896897 -95.96139645 57.01423556 -94.03434753 57.98716736 C-92.29345901 58.86650105 -90.55451397 59.74967928 -88.81567383 60.63305664 C-86.02076096 62.0652148 -86.02076096 62.0652148 -83 63 C-83 59.37 -83 55.74 -83 52 C-84.65 51.67 -86.3 51.34 -88 51 C-88.66 50.34 -89.32 49.68 -90 49 C-86.61401191 48.09706984 -83.5374519 47.98388118 -80.0625 48.0625 C-75.93349777 48.11755336 -72.89765658 47.41732967 -69 46 C-65.625 45.875 -65.625 45.875 -63 46 C-64.59890486 51.19644079 -66.74138003 56.06612142 -69 61 C-60.5117336 61.31712346 -60.5117336 61.31712346 -53.4375 57.5625 C-52.963125 56.386875 -52.48875 55.21125 -52 54 C-51.68160156 53.21625 -51.36320313 52.4325 -51.03515625 51.625 C-50.3451324 49.91686548 -49.67188779 48.20185645 -49.015625 46.48046875 C-47.63540302 43.109542 -45.89204509 40.1083598 -44 37 C-40.6875 36.6875 -40.6875 36.6875 -37 37 C-35.3125 38.9375 -35.3125 38.9375 -34 42 C-33.71898437 42.6084375 -33.43796875 43.216875 -33.1484375 43.84375 C-32.06075207 46.21366623 -31.03088931 48.60479843 -30 51 C-29.47535156 52.19625 -28.95070312 53.3925 -28.41015625 54.625 C-27.85642007 55.89568053 -27.30303443 57.16651389 -26.75 58.4375 C-25.96882813 60.22994141 -25.96882813 60.22994141 -25.171875 62.05859375 C-24 65 -24 65 -24 67 C-20.04 67 -16.08 67 -12 67 C-13.07741709 63.99775913 -14.16172636 60.99830492 -15.25 58 C-15.70052734 56.74123047 -15.70052734 56.74123047 -16.16015625 55.45703125 C-17.81262967 50.92151909 -19.63404581 46.62970491 -21.84863281 42.34472656 C-24.25724859 37.43964897 -26.32544585 32.37769931 -28.42871094 27.3359375 C-28.97858532 26.02303886 -29.53332119 24.71216631 -30.09277344 23.40332031 C-30.91090017 21.48926652 -31.71474174 19.56975977 -32.515625 17.6484375 C-32.99290039 16.51583496 -33.47017578 15.38323242 -33.96191406 14.21630859 C-35.23161653 10.28238097 -35.89857577 6.79715154 -34 3 C-31.109963 2.33959322 -28.30048628 1.81501788 -25.375 1.375 C-24.10112427 1.17716919 -24.10112427 1.17716919 -22.80151367 0.9753418 C-15.1513889 -0.13164006 -7.71808568 -0.31149225 0 0 Z " fill="#445E92" transform="translate(265,34)"/>
<path d="M0 0 C3 2.1875 3 2.1875 5 5 C5.3125 8.3125 5.3125 8.3125 5 11 C4.01 11.33 3.02 11.66 2 12 C1.67 12.66 1.34 13.32 1 14 C-1.06640625 14.4140625 -1.06640625 14.4140625 -3.5625 14.625 C-4.80193359 14.73714844 -4.80193359 14.73714844 -6.06640625 14.8515625 C-7.02353516 14.92503906 -7.02353516 14.92503906 -8 15 C-8.33 16.32 -8.66 17.64 -9 19 C-6.36 19.33 -3.72 19.66 -1 20 C-0.73846614 28.29885674 -1.55826503 36.38694003 -2.5 44.625 C-2.64308594 45.91535156 -2.78617187 47.20570312 -2.93359375 48.53515625 C-3.28420756 51.69068053 -3.63978452 54.84555987 -4 58 C-12.96049073 58.04211747 -12.96049073 58.04211747 -16 57 C-20.31180106 50.39755462 -17.97021433 40.39788426 -17 33 C-20.91211733 34.15585285 -23.8745041 35.35534962 -27 38 C-26.87625 39.299375 -26.7525 40.59875 -26.625 41.9375 C-26.55539062 42.66839844 -26.48578125 43.39929688 -26.4140625 44.15234375 C-26.27742188 44.76207031 -26.14078125 45.37179688 -26 46 C-25.34 46.33 -24.68 46.66 -24 47 C-23.375 48.625 -23.375 48.625 -23 51 C-22.814375 52.134375 -22.62875 53.26875 -22.4375 54.4375 C-23 58 -23 58 -24.78515625 59.5625 C-26.81613952 60.82335734 -28.84925153 61.95823121 -31 63 C-30.690625 63.86625 -30.38125 64.7325 -30.0625 65.625 C-29.07121077 68.77380108 -28.38095861 71.72375596 -28 75 C-29 76 -29 76 -32.59765625 76.09765625 C-34.08596867 76.0909822 -35.57426432 76.07902183 -37.0625 76.0625 C-37.82111328 76.05798828 -38.57972656 76.05347656 -39.36132812 76.04882812 C-41.24091871 76.0370068 -43.12046899 76.01907078 -45 76 C-45 75.67 -45 75.34 -45 75 C-40.05 74.67 -35.1 74.34 -30 74 C-31.0209375 71.89625 -31.0209375 71.89625 -32.0625 69.75 C-33.28217324 67.23673393 -34.04670427 65.64451899 -33.84375 62.84375 C-32.30785881 59.48754334 -29.19056533 58.62428781 -26 57 C-26 54.69 -26 52.38 -26 50 C-26.66 50 -27.32 50 -28 50 C-27.979375 50.969375 -27.95875 51.93875 -27.9375 52.9375 C-28 56 -28 56 -29 57 C-31.67058851 57.14115161 -34.32432238 57.04247107 -37 57 C-39.45380718 50.86188409 -41.18288534 44.74461403 -42.6875 38.3125 C-42.91244141 37.38888672 -43.13738281 36.46527344 -43.36914062 35.51367188 C-43.6872168 34.17079102 -43.6872168 34.17079102 -44.01171875 32.80078125 C-44.29728638 31.59675659 -44.29728638 31.59675659 -44.58862305 30.3684082 C-45.02292971 27.86798748 -45.07111314 25.53280827 -45 23 C-46.65 23 -48.3 23 -50 23 C-51.45184478 18.46298506 -52.23509196 14.81938524 -52 10 C-51.21753906 9.79503906 -50.43507812 9.59007812 -49.62890625 9.37890625 C-48.61699219 9.10949219 -47.60507813 8.84007812 -46.5625 8.5625 C-45.55316406 8.29566406 -44.54382813 8.02882813 -43.50390625 7.75390625 C-41.08247999 7.24021923 -41.08247999 7.24021923 -40 6 C-36.97665651 5.56217726 -33.92280553 5.43595242 -30.875 5.25 C-30.03195312 5.18167969 -29.18890625 5.11335938 -28.3203125 5.04296875 C-22.65844403 4.70009162 -19.03149483 5.35471546 -14 8 C-13.7525 7.071875 -13.505 6.14375 -13.25 5.1875 C-10.68903552 -1.34295941 -6.46932267 -2.08811801 0 0 Z " fill="#495D84" transform="translate(289,30)"/>
<path d="M0 0 C0.91765137 0.0009668 1.83530273 0.00193359 2.78076172 0.00292969 C9.85185998 0.18672537 15.29293231 1.47218271 20.5 6.5625 C24.24714147 10.60907058 24.06172408 14.13595012 23.90625 19.4609375 C23.15081668 25.22838037 20.83101425 29.61716266 16.3515625 33.35546875 C15.61679688 33.91878906 14.88203125 34.48210937 14.125 35.0625 C11.23197744 37.34768603 11.23197744 37.34768603 10.140625 40.71484375 C10.38507866 43.09826693 10.84888473 45.25763182 11.5 47.5625 C11.85562275 48.89544571 12.20984286 50.22876661 12.5625 51.5625 C12.73652344 52.201875 12.91054687 52.84125 13.08984375 53.5 C13.81878131 57.16551459 13.6549558 60.84356085 13.5 64.5625 C9.95648927 66.18239062 7.37280581 66.66664268 3.5 66.5625 C-3.16666667 51.5625 -9.83333333 36.5625 -16.5 21.5625 C-18.81 21.5625 -21.12 21.5625 -23.5 21.5625 C-24.37191947 20.17768672 -25.22190384 18.77904754 -26.0625 17.375 C-26.53816406 16.59769531 -27.01382813 15.82039063 -27.50390625 15.01953125 C-28.72056871 12.01843051 -28.58480537 10.58880283 -27.5 7.5625 C-19.40279953 1.70495072 -9.82669605 -0.02525679 0 0 Z " fill="#EEC649" transform="translate(78.5,45.4375)"/>
<path d="M0 0 C-0.33 0.66 -0.66 1.32 -1 2 C-3.36801246 2.23325809 -5.74676635 2.36070772 -8.125 2.4375 C-13.76931815 2.68622142 -17.95337103 3.47668551 -23 6 C-25.9375 6.1875 -25.9375 6.1875 -28 6 C-27.7834375 6.90492187 -27.7834375 6.90492187 -27.5625 7.828125 C-27.376875 8.62734375 -27.19125 9.4265625 -27 10.25 C-26.814375 11.03890625 -26.62875 11.8278125 -26.4375 12.640625 C-26 15 -26 15 -26 19 C-24.35 19 -22.7 19 -21 19 C-20.86424561 19.64437012 -20.72849121 20.28874023 -20.58862305 20.95263672 C-19.95925325 23.92769412 -19.32341253 26.90133452 -18.6875 29.875 C-18.47416016 30.88820313 -18.26082031 31.90140625 -18.04101562 32.9453125 C-16.65430132 39.40284775 -15.00715278 45.70725765 -13 52 C-10.36 52 -7.72 52 -5 52 C-5 49.69 -5 47.38 -5 45 C-4.01 45.33 -3.02 45.66 -2 46 C-1.67 48.31 -1.34 50.62 -1 53 C-3.64 54.65 -6.28 56.3 -9 58 C-8.56775791 60.59345253 -8.11816884 62.76366233 -6.9375 65.125 C-6 67 -6 67 -6 70 C-8.475 70.495 -8.475 70.495 -11 71 C-11 71.66 -11 72.32 -11 73 C-15.95 73.33 -20.9 73.66 -26 74 C-28.73246453 69.90130321 -30.70694203 66.76531997 -32.578125 62.3828125 C-33.01640625 61.36445312 -33.4546875 60.34609375 -33.90625 59.296875 C-34.3496875 58.25015625 -34.793125 57.2034375 -35.25 56.125 C-35.70890625 55.05507812 -36.1678125 53.98515625 -36.640625 52.8828125 C-37.76578222 50.25744565 -38.88538454 47.62985557 -40 45 C-42.27944525 46.99405436 -42.27944525 46.99405436 -43.25 50.5 C-45.36923779 56.43386582 -48.52144925 62.52144925 -53 67 C-55.33837891 67.22705078 -55.33837891 67.22705078 -58.2265625 67.1953125 C-59.2578125 67.18886719 -60.2890625 67.18242188 -61.3515625 67.17578125 C-62.43179688 67.15902344 -63.51203125 67.14226562 -64.625 67.125 C-65.71296875 67.11597656 -66.8009375 67.10695313 -67.921875 67.09765625 C-70.61480152 67.07403409 -73.30729255 67.04109556 -76 67 C-76 68.65 -76 70.3 -76 72 C-78.46036508 72.91904688 -80.25954196 73.27208862 -82.76464844 72.3515625 C-84.83982957 71.29333653 -86.85786887 70.16511253 -88.875 69 C-90.37976803 68.16482168 -91.88632002 67.33285046 -93.39453125 66.50390625 C-94.15588379 66.08383301 -94.91723633 65.66375977 -95.70166016 65.23095703 C-99.25772293 63.32638209 -102.89705454 61.61953318 -106.5625 59.9375 C-107.53582275 59.48987305 -107.53582275 59.48987305 -108.52880859 59.03320312 C-110.01748198 58.35169081 -111.50845776 57.67521053 -113 57 C-112.97679687 57.84304687 -112.95359375 58.68609375 -112.9296875 59.5546875 C-112.91164063 60.65039062 -112.89359375 61.74609375 -112.875 62.875 C-112.85179687 63.96554688 -112.82859375 65.05609375 -112.8046875 66.1796875 C-113 69 -113 69 -115 71 C-121.59963582 72.64483231 -128.21989344 73.26077333 -135 73 C-135.33 71.35 -135.66 69.7 -136 68 C-136.52207031 68.28875 -137.04414063 68.5775 -137.58203125 68.875 C-143.74541872 71.98367879 -149.12847535 73.02916935 -156 72 C-160.90316069 70.30519215 -164.06356734 67.22846303 -167 63 C-166.67 64.134375 -166.34 65.26875 -166 66.4375 C-164.84152933 70.99795849 -164.80506709 75.32161006 -165 80 C-167.37011238 81.01317781 -169.74499383 82.01055923 -172.125 83 C-172.79015625 83.28617187 -173.4553125 83.57234375 -174.140625 83.8671875 C-178.17996509 85.53044518 -181.56413239 86.72002489 -186 86 C-189.09729396 82.68046464 -190.70774543 78.52862889 -192.50390625 74.41796875 C-192.82785873 73.68556473 -193.15181122 72.95316071 -193.48558044 72.19856262 C-194.16795772 70.65228439 -194.8477607 69.10486787 -195.52514648 67.55639648 C-196.55573584 65.20294661 -197.59656608 62.85422867 -198.63867188 60.50585938 C-199.30270435 58.9976691 -199.96613544 57.48921388 -200.62890625 55.98046875 C-200.93727921 55.28543747 -201.24565216 54.59040619 -201.56336975 53.87431335 C-203.40625847 49.64094363 -204.8253298 45.46650811 -206 41 C-208.97 41.495 -208.97 41.495 -212 42 C-213.62723025 39.41804795 -215.25185205 36.83451657 -216.875 34.25 C-217.33519531 33.52039063 -217.79539062 32.79078125 -218.26953125 32.0390625 C-218.71425781 31.33007812 -219.15898437 30.62109375 -219.6171875 29.890625 C-220.02565918 29.24125977 -220.43413086 28.59189453 -220.85498047 27.92285156 C-224.02060023 22.60677028 -224.02060023 22.60677028 -223.9140625 19.46875 C-221.70850329 13.51185504 -214.07586783 10.97214937 -208.671875 8.44140625 C-197.68139563 4.16867583 -183.50395201 2.05029319 -172.1328125 6.21484375 C-167.30042573 8.53651612 -163.676198 11.09457025 -160 15 C-160.33 15.99 -160.66 16.98 -161 18 C-161.70125 17.2575 -162.4025 16.515 -163.125 15.75 C-172.14716733 7.12010081 -180.33624429 7.49223071 -192.1640625 7.65625 C-199.29359284 7.92932489 -204.6825114 9.60905951 -211 13 C-212.06347656 13.55042969 -213.12695312 14.10085937 -214.22265625 14.66796875 C-216.84654836 16.06450298 -219.43262996 17.50279623 -222 19 C-220.17659026 24.03836901 -217.46559878 28.50439653 -214.74609375 33.09179688 C-212 37.79435668 -212 37.79435668 -212 40 C-208.535 39.505 -208.535 39.505 -205 39 C-202.45036907 44.76382298 -199.90571279 50.52982306 -197.36450195 56.29736328 C-196.49943581 58.25913151 -195.63323237 60.22039865 -194.76586914 62.18115234 C-193.51930145 64.99966543 -192.27683563 67.81995561 -191.03515625 70.640625 C-190.64658951 71.51680481 -190.25802277 72.39298462 -189.85768127 73.29571533 C-189.49738327 74.11626404 -189.13708527 74.93681274 -188.76586914 75.78222656 C-188.44832169 76.50170471 -188.13077423 77.22118286 -187.80360413 77.96246338 C-187.01662632 79.95784401 -186.46914225 81.90928093 -186 84 C-184.57107422 83.58427734 -184.57107422 83.58427734 -183.11328125 83.16015625 C-181.23189453 82.61681641 -181.23189453 82.61681641 -179.3125 82.0625 C-178.07113281 81.70285156 -176.82976562 81.34320313 -175.55078125 80.97265625 C-172.70360138 80.19273569 -169.90197746 79.52712784 -167 79 C-167.64132203 75.87405648 -168.28882273 72.74942478 -168.9375 69.625 C-169.21110352 68.29082031 -169.21110352 68.29082031 -169.49023438 66.9296875 C-169.66748047 66.07890625 -169.84472656 65.228125 -170.02734375 64.3515625 C-170.18968506 63.56604004 -170.35202637 62.78051758 -170.51928711 61.97119141 C-170.93706722 59.94039254 -170.93706722 59.94039254 -172 58 C-172.039992 56.00039988 -172.04346799 53.99952758 -172 52 C-170.02 51.505 -170.02 51.505 -168 51 C-167.92523438 51.56847656 -167.85046875 52.13695312 -167.7734375 52.72265625 C-166.74468799 58.7640382 -164.82574821 63.06750541 -160 67 C-154.7856798 69.57699461 -149.70865731 69.70335892 -144 69 C-141.38975057 67.91632244 -139.37044724 66.58029816 -137 65 C-136.01 65 -135.02 65 -134 65 C-134 66.98 -134 68.96 -134 71 C-125.09 70.01 -125.09 70.01 -116 69 C-115.67 64.05 -115.34 59.1 -115 54 C-110.30064661 54.93987068 -106.70994007 56.4503336 -102.51171875 58.59765625 C-101.80852005 58.95137802 -101.10532135 59.30509979 -100.3808136 59.66954041 C-98.14681651 60.79490078 -95.91715008 61.92855543 -93.6875 63.0625 C-92.16889848 63.8293282 -90.65002112 64.59561038 -89.13085938 65.36132812 C-85.41679123 67.23357547 -81.70870112 69.11699033 -78 71 C-78 65.39 -78 59.78 -78 54 C-74 52 -74 52 -70 52 C-70.66 53.65 -71.32 55.3 -72 57 C-72.33 56.01 -72.66 55.02 -73 54 C-74.32 54.33 -75.64 54.66 -77 55 C-77 56.65 -77 58.3 -77 60 C-76.01 60 -75.02 60 -74 60 C-74.33 61.65 -74.66 63.3 -75 65 C-74.19304687 64.84660156 -73.38609375 64.69320312 -72.5546875 64.53515625 C-68.40952821 63.9111048 -64.3077704 63.65372796 -60.125 63.4375 C-59.34125 63.39431641 -58.5575 63.35113281 -57.75 63.30664062 C-55.83349351 63.20146649 -53.91676667 63.10032075 -52 63 C-52 61.68 -52 60.36 -52 59 C-52.99 59 -53.98 59 -55 59 C-54.5875 58.38125 -54.175 57.7625 -53.75 57.125 C-52.25736446 54.4595794 -51.15701555 51.96295337 -50.0625 49.125 C-48.38712631 44.80395897 -46.40761849 40.95537323 -44 37 C-40.6875 36.6875 -40.6875 36.6875 -37 37 C-35.3125 38.9375 -35.3125 38.9375 -34 42 C-33.71898437 42.6084375 -33.43796875 43.216875 -33.1484375 43.84375 C-32.06075207 46.21366623 -31.03088931 48.60479843 -30 51 C-29.47535156 52.19625 -28.95070312 53.3925 -28.41015625 54.625 C-27.85642007 55.89568053 -27.30303443 57.16651389 -26.75 58.4375 C-25.96882813 60.22994141 -25.96882813 60.22994141 -25.171875 62.05859375 C-24 65 -24 65 -24 67 C-20.04 67 -16.08 67 -12 67 C-13.07741709 63.99775913 -14.16172636 60.99830492 -15.25 58 C-15.70052734 56.74123047 -15.70052734 56.74123047 -16.16015625 55.45703125 C-17.81262967 50.92151909 -19.63404581 46.62970491 -21.84863281 42.34472656 C-24.25724859 37.43964897 -26.32544585 32.37769931 -28.42871094 27.3359375 C-28.97858532 26.02303886 -29.53332119 24.71216631 -30.09277344 23.40332031 C-30.91090017 21.48926652 -31.71474174 19.56975977 -32.515625 17.6484375 C-32.99290039 16.51583496 -33.47017578 15.38323242 -33.96191406 14.21630859 C-35.23161653 10.28238097 -35.89857577 6.79715154 -34 3 C-31.109963 2.33959322 -28.30048628 1.81501788 -25.375 1.375 C-24.10112427 1.17716919 -24.10112427 1.17716919 -22.80151367 0.9753418 C-15.1513889 -0.13164006 -7.71808568 -0.31149225 0 0 Z " fill="#485F8B" transform="translate(265,34)"/>
<path d="M0 0 C0 4.29 0 8.58 0 13 C2.88435938 10.11564062 5.29888612 7.45530277 7.75 4.25 C8.36359375 3.45078125 8.9771875 2.6515625 9.609375 1.828125 C10.06828125 1.22484375 10.5271875 0.6215625 11 0 C15.26833027 0.80825828 17.0609353 2.82890388 20 6 C20.66 6.66 21.32 7.32 22 8 C22.00639785 11.66596948 20.73930688 13.51879858 18.27734375 16.04296875 C17.17389239 17.10148915 16.06023292 18.14945322 14.9375 19.1875 C12.91088554 21.08989519 10.94633772 23.01256314 9 25 C9 25.66 9 26.32 9 27 C9.71285156 27.21914062 10.42570312 27.43828125 11.16015625 27.6640625 C18.37273127 30.05207522 23.36671495 32.8883833 28.39453125 38.578125 C30.38112809 40.3375441 32.15860933 40.91783762 34.6875 41.6875 C36.110625 42.120625 37.53375 42.55375 39 43 C39 46.3 39 49.6 39 53 C34.39386217 52.37629252 30.60059262 50.49373693 26.51171875 48.40234375 C25.80852005 48.04862198 25.10532135 47.69490021 24.3808136 47.33045959 C22.14681651 46.20509922 19.91715008 45.07144457 17.6875 43.9375 C16.16889848 43.1706718 14.65002112 42.40438962 13.13085938 41.63867188 C9.41679123 39.76642453 5.70870112 37.88300967 2 36 C2 42.27 2 48.54 2 55 C-2.95 55.495 -2.95 55.495 -8 56 C-8.02705729 54.22925083 -8.04642195 52.45838289 -8.0625 50.6875 C-8.07410156 49.70136719 -8.08570313 48.71523437 -8.09765625 47.69921875 C-8 45 -8 45 -7 42 C-6.82856913 39.71238153 -6.73356537 37.41857031 -6.6875 35.125 C-6.63142578 33.30355469 -6.63142578 33.30355469 -6.57421875 31.4453125 C-6.70218297 27.92997961 -6.70218297 27.92997961 -8.97265625 25.54296875 C-11.62426866 22.21695781 -11.66393866 19.27541387 -11.75 15.1875 C-11.77964844 14.49462891 -11.80929688 13.80175781 -11.83984375 13.08789062 C-11.90999628 11.39253787 -11.95732662 9.69626688 -12 8 C-13.32 8 -14.64 8 -16 8 C-15.9375 5.6875 -15.9375 5.6875 -15 3 C-9.86429564 -0.0394985 -5.88991826 -0.3099957 0 0 Z " fill="#E9C249" transform="translate(143,44)"/>
<path d="M0 0 C0.99 0.33 1.98 0.66 3 1 C4.03515625 3.31640625 4.03515625 3.31640625 5.0625 6.5625 C7.39267024 13.57280587 10.1473308 20.37469192 13 27.1875 C13.41515869 28.18402588 13.83031738 29.18055176 14.25805664 30.20727539 C16.69989971 36.02843343 19.25577642 41.78567879 21.88427734 47.5246582 C23.29380677 50.65183957 24.57715892 53.79987835 25.8125 57 C26.23144531 58.0725 26.65039062 59.145 27.08203125 60.25 C28 63 28 63 28 66 C24.04 66 20.08 66 16 66 C15.56429687 64.99582031 15.12859375 63.99164063 14.6796875 62.95703125 C13.44186538 60.10646972 12.18870512 57.26312916 10.9296875 54.421875 C9.71021587 51.66030745 8.54776911 48.88830851 7.4453125 46.078125 C6.96835938 44.91796875 6.49140625 43.7578125 6 42.5625 C5.38125 40.98662109 5.38125 40.98662109 4.75 39.37890625 C3.10601773 36.60229822 3.10601773 36.60229822 -0.6875 36.15234375 C-1.780625 36.10207031 -2.87375 36.05179688 -4 36 C-4.2475 36.66 -4.495 37.32 -4.75 38 C-6.02798253 41.06715808 -7.48495097 43.98666302 -8.9921875 46.9453125 C-9.92965458 48.85658259 -10.75906315 50.77946541 -11.5625 52.75 C-13.80796253 57.82669789 -13.80796253 57.82669789 -16 60 C-19.13671875 60.390625 -19.13671875 60.390625 -22.6875 60.25 C-24.45673828 60.19585937 -24.45673828 60.19585937 -26.26171875 60.140625 C-27.16535156 60.09421875 -28.06898438 60.0478125 -29 60 C-27.51079064 51.64307756 -24.33134412 46.92396103 -17.7734375 41.609375 C-15.61609053 39.65160638 -14.68468216 37.8243139 -14 35 C-14.66 35 -15.32 35 -16 35 C-15.43589761 30.21823781 -14.04514569 26.6094658 -11.875 22.32421875 C-11.56804199 21.71359085 -11.26108398 21.10296295 -10.94482422 20.47383118 C-10.29962815 19.19380211 -9.65064076 17.91567763 -8.99804688 16.6394043 C-7.99593583 14.6795516 -7.00482256 12.7144443 -6.015625 10.74804688 C-1.18018578 1.18018578 -1.18018578 1.18018578 0 0 Z " fill="#EBC349" transform="translate(225,35)"/>
<path d="M0 0 C0.81146484 -0.01611328 1.62292969 -0.03222656 2.45898438 -0.04882812 C8.65784671 -0.05383124 13.16549043 1.09597739 18.375 4.625 C20.14494202 7.43608439 19.99346623 9.03847666 19.4375 12.3125 C16.65225422 17.58808318 12.81333639 20.84478453 8 24.25 C4.55179274 26.71549746 4.55179274 26.71549746 3.01953125 30.4296875 C3.27488775 32.64677194 3.27488775 32.64677194 3.86328125 34.859375 C4.54282266 37.76244986 4.54198572 40.39783062 4.5 43.375 C4.49097656 44.31472656 4.48195313 45.25445312 4.47265625 46.22265625 C4.46105469 46.91230469 4.44945312 47.60195312 4.4375 48.3125 C0.9725 48.8075 0.9725 48.8075 -2.5625 49.3125 C-5.01630718 43.17438409 -6.74538534 37.05711403 -8.25 30.625 C-8.47494141 29.70138672 -8.69988281 28.77777344 -8.93164062 27.82617188 C-9.14369141 26.93091797 -9.35574219 26.03566406 -9.57421875 25.11328125 C-9.76459717 24.31059814 -9.95497559 23.50791504 -10.15112305 22.6809082 C-10.58542971 20.18048748 -10.63361314 17.84530827 -10.5625 15.3125 C-12.2125 15.3125 -13.8625 15.3125 -15.5625 15.3125 C-17.01434478 10.77548506 -17.79759196 7.13188524 -17.5625 2.3125 C-11.58454343 0.58980528 -6.20851354 -0.0247746 0 0 Z " fill="#EDC549" transform="translate(254.5625,37.6875)"/>
<path d="M0 0 C1.92456717 1.20884735 3.73592467 2.45733435 5.5078125 3.87890625 C5.14227121 8.89596045 2.52239193 11.31298574 -0.9921875 14.56640625 C-4.69830905 17.86299541 -4.69830905 17.86299541 -7.4921875 21.87890625 C-2.59656057 20.00188298 -2.59656057 20.00188298 1.5078125 16.87890625 C4.5078125 16.87890625 4.5078125 16.87890625 7.1328125 19.12890625 C9.38457892 21.73621473 9.89253579 22.67946736 10.5078125 25.87890625 C1.9135832 31.28002269 -5.07871396 35.19666062 -15.4921875 33.87890625 C-20.29516387 32.28339698 -24.28884693 29.85104856 -27.4921875 25.87890625 C-29.4147287 20.11128265 -29.51304962 13.99915834 -26.8671875 8.50390625 C-19.84563002 0.74323746 -10.54048565 -4.74156643 0 0 Z " fill="#E5BF48" transform="translate(195.4921875,49.12109375)"/>
<path d="M0 0 C2.54529532 1.9495879 3.89899988 3.75343837 5.0625 6.75 C5.81062605 12.63784919 5.57308596 17.81323849 2.0625 22.75 C-2.90744042 27.83827233 -7.13694222 31.40449475 -14.375 32.0625 C-19.66677965 31.5983088 -22.61408254 30.10824423 -26.3125 26.3125 C-28.68728775 21.10623455 -28.68979715 16.38059516 -27.9375 10.75 C-25.61374018 5.73067878 -21.52294715 1.83713218 -16.9375 -1.25 C-11.18239775 -3.15298972 -5.12606069 -3.49601629 0 0 Z " fill="#E9C248" transform="translate(128.9375,68.25)"/>
<path d="M0 0 C2.31885179 1.73416704 4.29458314 3.59672805 6.27734375 5.703125 C5.94734375 6.693125 5.61734375 7.683125 5.27734375 8.703125 C4.57609375 7.960625 3.87484375 7.218125 3.15234375 6.453125 C-5.86982358 -2.17677419 -14.05890054 -1.80464429 -25.88671875 -1.640625 C-33.01624909 -1.36755011 -38.40516765 0.31218451 -44.72265625 3.703125 C-45.78613281 4.25355469 -46.84960938 4.80398437 -47.9453125 5.37109375 C-50.56920461 6.76762798 -53.15528621 8.20592123 -55.72265625 9.703125 C-53.89924651 14.74149401 -51.18825503 19.20752153 -48.46875 23.79492188 C-45.72265625 28.49748168 -45.72265625 28.49748168 -45.72265625 30.703125 C-42.25765625 30.208125 -42.25765625 30.208125 -38.72265625 29.703125 C-36.17302532 35.46694798 -33.62836904 41.23294806 -31.0871582 47.00048828 C-30.22209206 48.96225651 -29.35588862 50.92352365 -28.48852539 52.88427734 C-27.2419577 55.70279043 -25.99949188 58.52308061 -24.7578125 61.34375 C-24.36924576 62.21992981 -23.98067902 63.09610962 -23.58033752 63.99884033 C-23.22003952 64.81938904 -22.85974152 65.63993774 -22.48852539 66.48535156 C-22.17097794 67.20482971 -21.85343048 67.92430786 -21.52626038 68.66558838 C-20.73928257 70.66096901 -20.1917985 72.61240593 -19.72265625 74.703125 C-18.29373047 74.28740234 -18.29373047 74.28740234 -16.8359375 73.86328125 C-14.95455078 73.31994141 -14.95455078 73.31994141 -13.03515625 72.765625 C-11.79378906 72.40597656 -10.55242187 72.04632813 -9.2734375 71.67578125 C-6.42625763 70.89586069 -3.62463371 70.23025284 -0.72265625 69.703125 C-1.36397828 66.57718148 -2.01147898 63.45254978 -2.66015625 60.328125 C-2.84255859 59.43867187 -3.02496094 58.54921875 -3.21289062 57.6328125 C-3.39013672 56.78203125 -3.56738281 55.93125 -3.75 55.0546875 C-3.91234131 54.26916504 -4.07468262 53.48364258 -4.24194336 52.67431641 C-4.65972347 50.64351754 -4.65972347 50.64351754 -5.72265625 48.703125 C-5.76264825 46.70352488 -5.76612424 44.70265258 -5.72265625 42.703125 C-3.74265625 42.208125 -3.74265625 42.208125 -1.72265625 41.703125 C-1.64789063 42.27160156 -1.573125 42.84007812 -1.49609375 43.42578125 C-0.46734424 49.4671632 1.45159554 53.77063041 6.27734375 57.703125 C11.49166395 60.28011961 16.56868644 60.40648392 22.27734375 59.703125 C24.88759318 58.61944744 26.90689651 57.28342316 29.27734375 55.703125 C30.26734375 55.703125 31.25734375 55.703125 32.27734375 55.703125 C32.27734375 57.683125 32.27734375 59.663125 32.27734375 61.703125 C41.18734375 60.713125 41.18734375 60.713125 50.27734375 59.703125 C50.60734375 54.753125 50.93734375 49.803125 51.27734375 44.703125 C55.97669714 45.64299568 59.56740368 47.1534586 63.765625 49.30078125 C64.4688237 49.65450302 65.1720224 50.00822479 65.89653015 50.37266541 C68.13052724 51.49802578 70.36019367 52.63168043 72.58984375 53.765625 C74.10844527 54.5324532 75.62732263 55.29873538 77.14648438 56.06445312 C80.86055252 57.93670047 84.56864263 59.82011533 88.27734375 61.703125 C88.27734375 56.093125 88.27734375 50.483125 88.27734375 44.703125 C92.27734375 42.703125 92.27734375 42.703125 96.27734375 42.703125 C95.61734375 44.353125 94.95734375 46.003125 94.27734375 47.703125 C93.94734375 46.713125 93.61734375 45.723125 93.27734375 44.703125 C91.95734375 45.033125 90.63734375 45.363125 89.27734375 45.703125 C89.27734375 47.353125 89.27734375 49.003125 89.27734375 50.703125 C90.26734375 50.703125 91.25734375 50.703125 92.27734375 50.703125 C91.94734375 52.353125 91.61734375 54.003125 91.27734375 55.703125 C92.08429688 55.54972656 92.89125 55.39632812 93.72265625 55.23828125 C97.86781554 54.6142298 101.96957335 54.35685296 106.15234375 54.140625 C106.93609375 54.09744141 107.71984375 54.05425781 108.52734375 54.00976562 C110.44385024 53.90459149 112.36057708 53.80344575 114.27734375 53.703125 C116.25734375 49.743125 118.23734375 45.783125 120.27734375 41.703125 C121.27734375 45.703125 121.27734375 45.703125 120.1328125 48.2109375 C119.58238281 49.07460937 119.03195313 49.93828125 118.46484375 50.828125 C117.65080078 52.13136719 117.65080078 52.13136719 116.8203125 53.4609375 C115.27734375 55.703125 115.27734375 55.703125 113.27734375 57.703125 C110.93896484 57.93017578 110.93896484 57.93017578 108.05078125 57.8984375 C106.50390625 57.88876953 106.50390625 57.88876953 104.92578125 57.87890625 C103.30542969 57.85376953 103.30542969 57.85376953 101.65234375 57.828125 C100.564375 57.81910156 99.47640625 57.81007812 98.35546875 57.80078125 C95.66254223 57.77715909 92.9700512 57.74422056 90.27734375 57.703125 C90.27734375 59.353125 90.27734375 61.003125 90.27734375 62.703125 C87.81697867 63.62217188 86.01780179 63.97521362 83.51269531 63.0546875 C81.43751418 61.99646153 79.41947488 60.86823753 77.40234375 59.703125 C75.89757572 58.86794668 74.39102373 58.03597546 72.8828125 57.20703125 C72.12145996 56.78695801 71.36010742 56.36688477 70.57568359 55.93408203 C67.01962082 54.02950709 63.38028921 52.32265818 59.71484375 50.640625 C58.741521 50.19299805 58.741521 50.19299805 57.74853516 49.73632812 C56.25986177 49.05481581 54.76888599 48.37833553 53.27734375 47.703125 C53.30054688 48.54617187 53.32375 49.38921875 53.34765625 50.2578125 C53.36570312 51.35351562 53.38375 52.44921875 53.40234375 53.578125 C53.42554688 54.66867188 53.44875 55.75921875 53.47265625 56.8828125 C53.27734375 59.703125 53.27734375 59.703125 51.27734375 61.703125 C44.67770793 63.34795731 38.05745031 63.96389833 31.27734375 63.703125 C30.94734375 62.053125 30.61734375 60.403125 30.27734375 58.703125 C29.75527344 58.991875 29.23320313 59.280625 28.6953125 59.578125 C22.53192503 62.68680379 17.1488684 63.73229435 10.27734375 62.703125 C5.37418306 61.00831715 2.21377641 57.93158803 -0.72265625 53.703125 C-0.22765625 55.4046875 -0.22765625 55.4046875 0.27734375 57.140625 C1.43581442 61.70108349 1.47227666 66.02473506 1.27734375 70.703125 C-1.09276863 71.71630281 -3.46765008 72.71368423 -5.84765625 73.703125 C-6.5128125 73.98929687 -7.17796875 74.27546875 -7.86328125 74.5703125 C-11.90262134 76.23357018 -15.28678864 77.42314989 -19.72265625 76.703125 C-22.81995021 73.38358964 -24.43040168 69.23175389 -26.2265625 65.12109375 C-26.55051498 64.38868973 -26.87446747 63.65628571 -27.20823669 62.90168762 C-27.89061397 61.35540939 -28.57041695 59.80799287 -29.24780273 58.25952148 C-30.27839209 55.90607161 -31.31922233 53.55735367 -32.36132812 51.20898438 C-33.0253606 49.7007941 -33.68879169 48.19233888 -34.3515625 46.68359375 C-34.65993546 45.98856247 -34.96830841 45.29353119 -35.286026 44.57743835 C-37.12891472 40.34406863 -38.54798605 36.16963311 -39.72265625 31.703125 C-42.69265625 32.198125 -42.69265625 32.198125 -45.72265625 32.703125 C-47.3498865 30.12117295 -48.9745083 27.53764157 -50.59765625 24.953125 C-51.05785156 24.22351563 -51.51804687 23.49390625 -51.9921875 22.7421875 C-52.43691406 22.03320312 -52.88164063 21.32421875 -53.33984375 20.59375 C-53.74831543 19.94438477 -54.15678711 19.29501953 -54.57763672 18.62597656 C-57.74325648 13.30989528 -57.74325648 13.30989528 -57.63671875 10.171875 C-55.43115954 4.21498004 -47.79852408 1.67527437 -42.39453125 -0.85546875 C-28.92102772 -6.09351583 -12.82809827 -7.45951089 0 0 Z " fill="#474C5A" transform="translate(98.72265625,43.296875)"/>
<path d="M0 0 C1.859375 0.22265625 1.859375 0.22265625 4 1 C5.265625 2.99609375 5.265625 2.99609375 6.25 5.4375 C6.58515625 6.24058594 6.9203125 7.04367188 7.265625 7.87109375 C8 10 8 10 8 12 C8.81339844 11.7834375 9.62679687 11.566875 10.46484375 11.34375 C23.29648225 8.22605156 36.95918455 6.37311385 49 13 C49.268125 12.236875 49.53625 11.47375 49.8125 10.6875 C50.97752524 8.05086394 51.689663 6.68024509 54 5 C58.02736357 4.16818653 62.16609801 4.1747441 65.953125 5.87890625 C69.02750349 8.13991762 69.98917553 9.95814538 70.9375 13.625 C71 17 71 17 70 20 C69.6505524 22.92093408 69.34040189 25.83390715 69.0625 28.76171875 C68.97750244 29.62634232 68.89250488 30.49096588 68.80493164 31.38179016 C68.53334731 34.15005183 68.26646269 36.91874105 68 39.6875 C67.73271012 42.43831819 67.46442115 45.18903454 67.19506836 47.93965149 C67.02782873 49.65028105 66.86189954 51.36103941 66.69750977 53.07194519 C66.47313169 55.38219476 66.23712407 57.69102956 66 60 C65.93055176 60.75713287 65.86110352 61.51426575 65.78955078 62.29434204 C65.22601 67.77399 65.22601 67.77399 63 70 C56.72392691 70.623381 50.1927211 70.12594929 44 69 C43.01 68.01 43.01 68.01 42 67 C42.1570987 64.05069414 42.4245896 61.23228065 42.8125 58.3125 C42.90853516 57.52166016 43.00457031 56.73082031 43.10351562 55.91601562 C43.67531952 51.26866987 44.3239374 46.63319966 45 42 C41.86615486 43.50459629 41.86615486 43.50459629 39 46 C38.49874717 49.66857722 38.49874717 49.66857722 39 53 C38.01 53.495 38.01 53.495 37 54 C36.27075207 50.95704728 35.79042531 48.13314163 36 45 C37.70133998 42.33861818 39.14634871 41.63820722 42 40 C43.65 40 45.3 40 47 40 C47 46.27 47 52.54 47 59 C47.33 59 47.66 59 48 59 C48 60.65 48 62.3 48 64 C51.96 64.33 55.92 64.66 60 65 C60.07347656 63.39898437 60.07347656 63.39898437 60.1484375 61.765625 C60.71975382 50.13082743 61.75487343 38.58088601 63 27 C60.03 27 57.06 27 54 27 C54.66 25.35 55.32 23.7 56 22 C58.97 21.67 61.94 21.34 65 21 C65.495 19.515 65.495 19.515 66 18 C66.99 18 67.98 18 69 18 C68.62708218 14.87520588 68.12428093 11.94787536 67 9 C63.62097233 6.95686699 61.29864748 7.00514909 57.375 6.9375 C53.70521152 8.09280378 53.36270231 8.42009738 51.5625 11.5625 C51.046875 12.696875 50.53125 13.83125 50 15 C47.67772157 14.46408959 45.53145178 13.82260169 43.296875 12.9765625 C34.48961313 10.3677764 24.55516141 11.75043512 15.68359375 13.5625 C13 14 13 14 7 14 C5.02 10.37 3.04 6.74 1 3 C-2.23659194 8.201526 -2.23659194 8.201526 -4 14 C-4.66 14 -5.32 14 -6 14 C-6 14.66 -6 15.32 -6 16 C-6.66 16 -7.32 16 -8 16 C-6.42986223 10.03347646 -3.24970218 5.17090975 0 0 Z " fill="#4B546A" transform="translate(225,23)"/>
<path d="M0 0 C0.26153386 8.29885674 -0.55826503 16.38694003 -1.5 24.625 C-1.71462891 26.56052734 -1.71462891 26.56052734 -1.93359375 28.53515625 C-2.28420756 31.69068053 -2.63978452 34.84555987 -3 38 C-7.16138263 38.08159574 -10.9472484 37.98248524 -15 37 C-14.54362211 27.53616378 -13.81847768 18.32190498 -12 9 C-12.99 9 -13.98 9 -15 9 C-14.25 4.25 -14.25 4.25 -12 2 C-9.94140625 1.3671875 -9.94140625 1.3671875 -7.5625 0.875 C-6.78003906 0.70742188 -5.99757813 0.53984375 -5.19140625 0.3671875 C-3 0 -3 0 0 0 Z " fill="#EBC349" transform="translate(288,50)"/>
<path d="M0 0 C3.5 0.625 3.5 0.625 5.1875 2.5625 C5.620625 3.573125 6.05375 4.58375 6.5 5.625 C6.93892578 6.57246094 6.93892578 6.57246094 7.38671875 7.5390625 C8.07004918 9.02456343 8.73149713 10.52025502 9.375 12.0234375 C10.19467525 13.91893652 11.05447536 15.79723322 11.9375 17.6640625 C12.411875 18.70304687 12.88625 19.74203125 13.375 20.8125 C14.05175781 22.25689453 14.05175781 22.25689453 14.7421875 23.73046875 C15.69864001 27.38372293 15.07631489 29.24228699 13.5 32.625 C12.51 33.12 12.51 33.12 11.5 33.625 C7.87 25.375 4.24 17.125 0.5 8.625 C-1.72189824 10.84689824 -2.42598892 12.70982708 -3.5 15.625 C-4.16 15.625 -4.82 15.625 -5.5 15.625 C-5.87125 16.57375 -6.2425 17.5225 -6.625 18.5 C-8.9098329 22.30805483 -10.35835346 22.46893064 -14.5 23.625 C-13.23463 20.7267494 -11.96173391 17.8318632 -10.6875 14.9375 C-10.33107422 14.12087891 -9.97464844 13.30425781 -9.60742188 12.46289062 C-4.45898407 0.79624716 -4.45898407 0.79624716 0 0 Z " fill="#435C91" transform="translate(224.5,70.375)"/>
<path d="M0 0 C2.31885179 1.73416704 4.29458314 3.59672805 6.27734375 5.703125 C5.94734375 6.693125 5.61734375 7.683125 5.27734375 8.703125 C4.57609375 7.960625 3.87484375 7.218125 3.15234375 6.453125 C-5.86982358 -2.17677419 -14.05890054 -1.80464429 -25.88671875 -1.640625 C-33.01624909 -1.36755011 -38.40516765 0.31218451 -44.72265625 3.703125 C-45.78613281 4.25355469 -46.84960938 4.80398437 -47.9453125 5.37109375 C-50.56920461 6.76762798 -53.15528621 8.20592123 -55.72265625 9.703125 C-53.89924651 14.74149401 -51.18825503 19.20752153 -48.46875 23.79492188 C-45.72265625 28.49748168 -45.72265625 28.49748168 -45.72265625 30.703125 C-42.25765625 30.208125 -42.25765625 30.208125 -38.72265625 29.703125 C-36.17562431 35.48640332 -33.63066705 41.27059127 -31.0871582 47.05541992 C-30.22142655 49.02372975 -29.35521808 50.99182994 -28.48852539 52.9597168 C-27.24370265 55.78639785 -26.00058993 58.61382548 -24.7578125 61.44140625 C-24.36924576 62.32274734 -23.98067902 63.20408844 -23.58033752 64.11213684 C-23.22003952 64.93276108 -22.85974152 65.75338531 -22.48852539 66.59887695 C-22.17097794 67.32057571 -21.85343048 68.04227448 -21.52626038 68.7858429 C-20.85138286 70.39600211 -20.27474975 72.04684449 -19.72265625 73.703125 C-20.71265625 74.198125 -20.71265625 74.198125 -21.72265625 74.703125 C-23.97072465 69.70703551 -26.21253286 64.70820114 -28.44873047 59.70678711 C-29.20940931 58.00778684 -29.97175627 56.30953235 -30.73583984 54.61206055 C-31.83746813 52.16391789 -32.93295515 49.71310479 -34.02734375 47.26171875 C-34.5368306 46.13472816 -34.5368306 46.13472816 -35.05661011 44.98497009 C-37.00032123 40.61276637 -38.52099678 36.33618986 -39.72265625 31.703125 C-42.69265625 32.198125 -42.69265625 32.198125 -45.72265625 32.703125 C-47.3498865 30.12117295 -48.9745083 27.53764157 -50.59765625 24.953125 C-51.05785156 24.22351563 -51.51804687 23.49390625 -51.9921875 22.7421875 C-52.43691406 22.03320312 -52.88164063 21.32421875 -53.33984375 20.59375 C-53.74831543 19.94438477 -54.15678711 19.29501953 -54.57763672 18.62597656 C-57.74325648 13.30989528 -57.74325648 13.30989528 -57.63671875 10.171875 C-55.43115954 4.21498004 -47.79852408 1.67527437 -42.39453125 -0.85546875 C-28.92102772 -6.09351583 -12.82809827 -7.45951089 0 0 Z " fill="#3D4251" transform="translate(98.72265625,43.296875)"/>
<path d="M0 0 C2.9473956 0.33036742 3.86365237 0.83902183 5.81640625 3.14453125 C6.39261719 4.02496094 6.96882813 4.90539062 7.5625 5.8125 C8.14128906 6.68519531 8.72007812 7.55789062 9.31640625 8.45703125 C10.14978516 9.71580078 10.14978516 9.71580078 11 11 C11.56589844 11.68449219 12.13179687 12.36898438 12.71484375 13.07421875 C14 15 14 15 14 19 C7.375 23 7.375 23 4 23 C4 23.66 4 24.32 4 25 C5.010625 25.185625 6.02125 25.37125 7.0625 25.5625 C11.9177455 26.9567762 15.01438796 30.01918395 18 34 C19.1875 37 19.1875 37 19 40 C17.87441996 42.55062633 16.54732173 44.65557314 15 47 C14.01 46.67 13.02 46.34 12 46 C12.3125 44.0625 12.3125 44.0625 13 42 C13.99 41.67 14.98 41.34 16 41 C16 37.29023022 15.97156554 35.07332552 13.43359375 32.26953125 C8.84719083 28.63451524 4.72988117 27.02319307 -1 26 C-1 25.34 -1 24.68 -1 24 C2.96 22.02 6.92 20.04 11 18 C9.45831854 14.14579635 8.19035546 11.60656852 5.875 8.3125 C3 4.22009569 3 4.22009569 3 2 C-0.77606225 4.82372203 -3.64357436 7.80438631 -6.5625 11.5 C-8.71101549 14.21077864 -10.74504537 16.76253797 -13.27734375 19.12109375 C-15.4012527 21.01280004 -15.4012527 21.01280004 -15 24.5625 C-15 28 -15 28 -16.6875 29.9375 C-19.54263212 31.24931746 -20.87331004 31.4663387 -24 31 C-26.29689213 29.22473582 -28.26602041 27.5241001 -30.3125 25.5 C-30.86228516 24.97535156 -31.41207031 24.45070313 -31.97851562 23.91015625 C-33.32963171 22.61778434 -34.66628217 21.31031927 -36 20 C-35.01 19.67 -34.02 19.34 -33 19 C-32.29423828 19.72316406 -32.29423828 19.72316406 -31.57421875 20.4609375 C-30.95160156 21.09257813 -30.32898438 21.72421875 -29.6875 22.375 C-29.07261719 23.00148438 -28.45773438 23.62796875 -27.82421875 24.2734375 C-24.68593818 27.2437159 -23.42850886 28 -19 28 C-19.09152344 27.11699219 -19.18304688 26.23398437 -19.27734375 25.32421875 C-18.91923111 21.03191096 -17.56774492 19.83604169 -14.5625 16.8125 C-13.20705078 15.40484375 -13.20705078 15.40484375 -11.82421875 13.96875 C-11.12304932 13.24365234 -11.12304932 13.24365234 -10.40771484 12.50390625 C-6.70159629 8.54454269 -3.38767966 4.23050817 0 0 Z " fill="#51535D" transform="translate(191,18)"/>
<path d="M0 0 C1.859375 0.22265625 1.859375 0.22265625 4 1 C5.265625 2.99609375 5.265625 2.99609375 6.25 5.4375 C6.58515625 6.24058594 6.9203125 7.04367188 7.265625 7.87109375 C8 10 8 10 8 12 C8.81339844 11.7834375 9.62679687 11.566875 10.46484375 11.34375 C23.29648225 8.22605156 36.95918455 6.37311385 49 13 C49.268125 12.236875 49.53625 11.47375 49.8125 10.6875 C50.97752524 8.05086394 51.689663 6.68024509 54 5 C58.02736357 4.16818653 62.16609801 4.1747441 65.953125 5.87890625 C69.02750349 8.13991762 69.98917553 9.95814538 70.9375 13.625 C71 17 71 17 70 20 C69.71634534 21.98914391 69.47011812 23.98372977 69.24609375 25.98046875 C69.04790039 27.72553711 69.04790039 27.72553711 68.84570312 29.50585938 C68.64364258 31.32827148 68.64364258 31.32827148 68.4375 33.1875 C68.29892578 34.41404297 68.16035156 35.64058594 68.01757812 36.90429688 C67.67549234 39.9358847 67.33642112 42.9677792 67 46 C66.67 46 66.34 46 66 46 C65.71541502 22.56916996 65.71541502 22.56916996 68 18 C68.14375422 14.62177584 68.07536348 12.22609045 67 9 C62.42849596 6.82309331 58.83811865 6.47688857 54 8 C52.17367163 10.2387251 51.2120852 12.33341257 50 15 C47.67772157 14.46408959 45.53145178 13.82260169 43.296875 12.9765625 C34.48961313 10.3677764 24.55516141 11.75043512 15.68359375 13.5625 C13 14 13 14 7 14 C5.02 10.37 3.04 6.74 1 3 C-2.23659194 8.201526 -2.23659194 8.201526 -4 14 C-4.66 14 -5.32 14 -6 14 C-6 14.66 -6 15.32 -6 16 C-6.66 16 -7.32 16 -8 16 C-6.42986223 10.03347646 -3.24970218 5.17090975 0 0 Z " fill="#3D414E" transform="translate(225,23)"/>
<path d="M0 0 C1 4 1 4 -0.14453125 6.5078125 C-0.69496094 7.37148437 -1.24539062 8.23515625 -1.8125 9.125 C-2.62654297 10.42824219 -2.62654297 10.42824219 -3.45703125 11.7578125 C-5 14 -5 14 -7 16 C-9.33837891 16.22705078 -9.33837891 16.22705078 -12.2265625 16.1953125 C-13.7734375 16.18564453 -13.7734375 16.18564453 -15.3515625 16.17578125 C-16.43179688 16.15902344 -17.51203125 16.14226562 -18.625 16.125 C-19.71296875 16.11597656 -20.8009375 16.10695313 -21.921875 16.09765625 C-24.61480152 16.07403409 -27.30729255 16.04109556 -30 16 C-30 17.65 -30 19.3 -30 21 C-32.46036508 21.91904688 -34.25954196 22.27208862 -36.76464844 21.3515625 C-38.83982957 20.29333653 -40.85786887 19.16511253 -42.875 18 C-44.37976803 17.16482168 -45.88632002 16.33285046 -47.39453125 15.50390625 C-48.15588379 15.08383301 -48.91723633 14.66375977 -49.70166016 14.23095703 C-53.25772293 12.32638209 -56.89705454 10.61953318 -60.5625 8.9375 C-61.21138184 8.63908203 -61.86026367 8.34066406 -62.52880859 8.03320312 C-64.01748198 7.35169081 -65.50845776 6.67521053 -67 6 C-67 9.96 -67 13.92 -67 18 C-67.33 18 -67.66 18 -68 18 C-68 13.38 -68 8.76 -68 4 C-67.34 3.67 -66.68 3.34 -66 3 C-63.38744923 4.1291081 -60.89430825 5.32196359 -58.3671875 6.62109375 C-57.61535187 6.99984146 -56.86351624 7.37858917 -56.08889771 7.76881409 C-53.68042171 8.98427757 -51.27773362 10.21073026 -48.875 11.4375 C-47.24646204 12.26179573 -45.61756022 13.08537302 -43.98828125 13.90820312 C-39.98716003 15.92915681 -35.99404864 17.96485645 -32 20 C-32 14.39 -32 8.78 -32 3 C-28 1 -28 1 -24 1 C-24.66 2.65 -25.32 4.3 -26 6 C-26.495 4.515 -26.495 4.515 -27 3 C-28.32 3.33 -29.64 3.66 -31 4 C-31 5.65 -31 7.3 -31 9 C-30.01 9 -29.02 9 -28 9 C-28.33 10.65 -28.66 12.3 -29 14 C-27.78957031 13.76990234 -27.78957031 13.76990234 -26.5546875 13.53515625 C-22.40952821 12.9111048 -18.3077704 12.65372796 -14.125 12.4375 C-13.34125 12.39431641 -12.5575 12.35113281 -11.75 12.30664062 C-9.83349351 12.20146649 -7.91676667 12.10032075 -6 12 C-4.02 8.04 -2.04 4.08 0 0 Z " fill="#595C67" transform="translate(219,85)"/>
<path d="M0 0 C2.1115143 2.50253547 2.42368466 4.5465856 2.28515625 7.79296875 C1.13110592 12.05465788 -2.00743087 15.18844798 -5.3125 18 C-5.9725 18 -6.6325 18 -7.3125 18 C-7.98571284 15.75194998 -8.65084123 13.50147776 -9.3125 11.25 C-9.68375 9.99703125 -10.055 8.7440625 -10.4375 7.453125 C-11.3125 4 -11.3125 4 -11.3125 0 C-7.27228083 -1.19710198 -3.94855188 -1.70748189 0 0 Z " fill="#4D5F83" transform="translate(91.3125,61)"/>
<path d="M0 0 C0.680625 0.01546875 1.36125 0.0309375 2.0625 0.046875 C4 0.25 4 0.25 7 1.25 C7 4.25 7 4.25 4.8125 6.625 C3.884375 7.49125 2.95625 8.3575 2 9.25 C1.071875 10.178125 0.14375 11.10625 -0.8125 12.0625 C-1.534375 12.784375 -2.25625 13.50625 -3 14.25 C-4.32 13.59 -5.64 12.93 -7 12.25 C-7.08131463 10.81344146 -7.13933559 9.3755517 -7.1875 7.9375 C-7.22230469 7.13699219 -7.25710937 6.33648437 -7.29296875 5.51171875 C-7 3.25 -7 3.25 -5.73828125 1.47265625 C-3.63521832 -0.00657678 -2.54597671 -0.09643851 0 0 Z " fill="#435983" transform="translate(184,55.75)"/>
<path d="M0 0 C-9.9 3.465 -9.9 3.465 -20 7 C-20 10.96 -20 14.92 -20 19 C-18.68 19 -17.36 19 -16 19 C-16 20.98 -16 22.96 -16 25 C-17.41152344 25.07347656 -17.41152344 25.07347656 -18.8515625 25.1484375 C-20.71941406 25.26058594 -20.71941406 25.26058594 -22.625 25.375 C-23.85476562 25.44460937 -25.08453125 25.51421875 -26.3515625 25.5859375 C-29.83653855 25.9814487 -32.73049601 26.76261849 -36 28 C-35.67 25.69 -35.34 23.38 -35 21 C-34.67 22.32 -34.34 23.64 -34 25 C-33.05125 24.67 -32.1025 24.34 -31.125 24 C-26.44552744 22.6355542 -21.83176241 22.82500659 -17 23 C-17 22.34 -17 21.68 -17 21 C-18.65 21 -20.3 21 -22 21 C-22 15.72 -22 10.44 -22 5 C-17.62524627 3.12510554 -13.80898684 1.50722029 -9.3125 0.25 C-7.94544922 -0.14445312 -7.94544922 -0.14445312 -6.55078125 -0.546875 C-4 -1 -4 -1 0 0 Z " fill="#3A3F50" transform="translate(143,38)"/>
<path d="M0 0 C0.66 0 1.32 0 2 0 C2.10867392 5.9227287 1.70834336 11.62266454 1 17.5 C0.85691406 18.73363281 0.85691406 18.73363281 0.7109375 19.9921875 C0.47802113 21.99526826 0.23959066 23.99770659 0 26 C-0.66 26 -1.32 26 -2 26 C-2 20.06 -2 14.12 -2 8 C-2.99 8.33 -3.98 8.66 -5 9 C-7.33299825 9.03954234 -9.66708189 9.04401732 -12 9 C-11.34 7.35 -10.68 5.7 -10 4 C-5.545 3.505 -5.545 3.505 -1 3 C-0.67 2.01 -0.34 1.02 0 0 Z " fill="#405D9B" transform="translate(291,41)"/>
<path d="M0 0 C1.859375 0.22265625 1.859375 0.22265625 4 1 C5.265625 2.99609375 5.265625 2.99609375 6.25 5.4375 C6.58515625 6.24058594 6.9203125 7.04367188 7.265625 7.87109375 C8 10 8 10 8 12 C8.81339844 11.7834375 9.62679687 11.566875 10.46484375 11.34375 C20.15268174 8.9898996 29.08330921 8.67584667 39 9 C39 9.33 39 9.66 39 10 C34.38 10.33 29.76 10.66 25 11 C25 11.33 25 11.66 25 12 C23.12612523 12.3396019 21.25083303 12.67138691 19.375 13 C18.33085937 13.185625 17.28671875 13.37125 16.2109375 13.5625 C13 14 13 14 7 14 C5.02 10.37 3.04 6.74 1 3 C-2.23659194 8.201526 -2.23659194 8.201526 -4 14 C-4.66 14 -5.32 14 -6 14 C-6 14.66 -6 15.32 -6 16 C-6.66 16 -7.32 16 -8 16 C-6.42986223 10.03347646 -3.24970218 5.17090975 0 0 Z " fill="#535660" transform="translate(225,23)"/>
<path d="M0 0 C0.66 1.98 1.32 3.96 2 6 C6.25731568 6.40749675 6.25731568 6.40749675 9.875 4.5 C10.24625 4.005 10.6175 3.51 11 3 C10.51834131 9.38197767 10.51834131 9.38197767 8.375 11.9375 C5.03604169 13.43124451 2.61175607 13.45967805 -1 13 C-2.9375 11.5 -2.9375 11.5 -4 9 C-4.22844671 6.27940731 -4.13704173 3.7408346 -4 1 C-1 0 -1 0 0 0 Z " fill="#485E88" transform="translate(116,72)"/>
<path d="M0 0 C3.0625 0.3125 3.0625 0.3125 5 1.375 C6.69431173 4.46462727 5.80201685 6.98467418 5.0625 10.3125 C4.0625 11.3125 4.0625 11.3125 0.625 11.5 C-2.9375 11.3125 -2.9375 11.3125 -4.9375 9.3125 C-5.1875 5.8125 -5.1875 5.8125 -4.9375 2.3125 C-2.9375 0.3125 -2.9375 0.3125 0 0 Z " fill="#E9C247" transform="translate(283.9375,32.6875)"/>
<path d="M0 0 C2.359375 1.0703125 2.359375 1.0703125 3.671875 3.6328125 C4.0121875 4.839375 4.0121875 4.839375 4.359375 6.0703125 C2.76026632 7.07838101 1.15489238 8.07651635 -0.453125 9.0703125 C-1.79310547 9.905625 -1.79310547 9.905625 -3.16015625 10.7578125 C-5.640625 12.0703125 -5.640625 12.0703125 -8.640625 12.0703125 C-8.640625 12.7303125 -8.640625 13.3903125 -8.640625 14.0703125 C-9.630625 14.0703125 -10.620625 14.0703125 -11.640625 14.0703125 C-11.11855732 9.75557665 -9.73158439 7.45280352 -6.890625 4.1953125 C-5.87742188 2.99261719 -5.87742188 2.99261719 -4.84375 1.765625 C-2.640625 0.0703125 -2.640625 0.0703125 0 0 Z " fill="#DFBB47" transform="translate(192.640625,27.9296875)"/>
<path d="M0 0 C0.33 0.66 0.66 1.32 1 2 C2.32 2 3.64 2 5 2 C5.69677959 19.76787955 5.69677959 19.76787955 1.42578125 24.88671875 C0.95527344 25.25410156 0.48476563 25.62148437 0 26 C-0.11381955 19.23405981 0.11978631 12.71162938 1 6 C-0.98 6.33 -2.96 6.66 -5 7 C-3.70700306 4.11562221 -2.34058637 2.12780579 0 0 Z " fill="#455B87" transform="translate(271,57)"/>
<path d="M0 0 C0.09377123 7.41834582 0.17402193 14.66236293 -1 22 C-5.8333472 22.08333357 -10.23692563 21.95261487 -15 21 C-15 20.34 -15 19.68 -15 19 C-11.37 19 -7.74 19 -4 19 C-3.505 10.09 -3.505 10.09 -3 1 C-1 0 -1 0 0 0 Z " fill="#485F8C" transform="translate(289,69)"/>
<path d="M0 0 C0.99 0.33 1.98 0.66 3 1 C3.33 3.31 3.66 5.62 4 8 C1.36 9.65 -1.28 11.3 -4 13 C-3.773125 13.928125 -3.54625 14.85625 -3.3125 15.8125 C-3 19 -3 19 -4.4375 20.875 C-4.953125 21.24625 -5.46875 21.6175 -6 22 C-6 21.01 -6 20.02 -6 19 C-6.66 19 -7.32 19 -8 19 C-9.60725635 15.78548731 -9.05748185 12.56387464 -9 9 C-6.03 8.34 -3.06 7.68 0 7 C0 4.69 0 2.38 0 0 Z " fill="#415D97" transform="translate(260,79)"/>
<path d="M0 0 C0.66 0.33 1.32 0.66 2 1 C1.67 5.95 1.34 10.9 1 16 C-6.25007658 18.41669219 -12.45534927 19.13236229 -20 19 C-20.495 16.525 -20.495 16.525 -21 14 C-21.9075 14.495 -22.815 14.99 -23.75 15.5 C-28.95973205 17.78798541 -34.425617 17.24714013 -40 17 C-40 16.67 -40 16.34 -40 16 C-38.93072266 15.96132812 -38.93072266 15.96132812 -37.83984375 15.921875 C-31.350182 15.53756125 -27.43470047 14.50991072 -22 11 C-21.01 11 -20.02 11 -19 11 C-19 12.98 -19 14.96 -19 17 C-10.09 16.01 -10.09 16.01 -1 15 C-0.67 10.05 -0.34 5.1 0 0 Z " fill="#3E4351" transform="translate(150,88)"/>
<path d="M0 0 C0.08786771 4.88293431 -0.20464722 9.53814689 -0.875 14.375 C-1.03742188 15.59960938 -1.19984375 16.82421875 -1.3671875 18.0859375 C-1.57601563 19.04757813 -1.78484375 20.00921875 -2 21 C-2.66 21.33 -3.32 21.66 -4 22 C-4.53160457 19.58525383 -5.05054766 17.16891893 -5.5625 14.75 C-5.78969727 13.72712891 -5.78969727 13.72712891 -6.02148438 12.68359375 C-7.38297755 6.16109155 -7.38297755 6.16109155 -6 3 C-2.67857143 0 -2.67857143 0 0 0 Z " fill="#F2F2F2" transform="translate(270,65)"/>
<path d="M0 0 C1 4 1 4 -0.1796875 6.54296875 C-0.73914063 7.41566406 -1.29859375 8.28835937 -1.875 9.1875 C-2.42929688 10.06792969 -2.98359375 10.94835937 -3.5546875 11.85546875 C-5 14 -5 14 -6 15 C-7.85369611 15.08737645 -9.71067541 15.10698153 -11.56640625 15.09765625 C-12.69111328 15.09443359 -13.81582031 15.09121094 -14.97460938 15.08789062 C-16.15861328 15.07951172 -17.34261719 15.07113281 -18.5625 15.0625 C-19.75037109 15.05798828 -20.93824219 15.05347656 -22.16210938 15.04882812 C-25.10812226 15.03699675 -28.05403681 15.02051287 -31 15 C-31 13.35 -31 11.7 -31 10 C-30.34 10 -29.68 10 -29 10 C-29 11.32 -29 12.64 -29 14 C-27.78957031 13.76990234 -27.78957031 13.76990234 -26.5546875 13.53515625 C-22.40952821 12.9111048 -18.3077704 12.65372796 -14.125 12.4375 C-12.949375 12.37272461 -12.949375 12.37272461 -11.75 12.30664062 C-9.83349351 12.20146649 -7.91676667 12.10032075 -6 12 C-4.02 8.04 -2.04 4.08 0 0 Z " fill="#383E50" transform="translate(219,85)"/>
<path d="M0 0 C0.33 0.66 0.66 1.32 1 2 C0.01 2.33 -0.98 2.66 -2 3 C-1.484375 3.5775 -0.96875 4.155 -0.4375 4.75 C1 7 1 7 0.8125 9.1875 C0 11 0 11 -2 12 C-1.67 10.02 -1.34 8.04 -1 6 C-1.66 6 -2.32 6 -3 6 C-3.12375 7.134375 -3.2475 8.26875 -3.375 9.4375 C-3.58125 10.613125 -3.7875 11.78875 -4 13 C-4.99 13.495 -4.99 13.495 -6 14 C-6.50757862 12.58603098 -7.00574925 11.16868271 -7.5 9.75 C-7.91765625 8.56664063 -7.91765625 8.56664063 -8.34375 7.359375 C-9 5 -9 5 -9 1 C-5.92677456 0.08941469 -3.19902639 -0.08886184 0 0 Z " fill="#3C4F7A" transform="translate(89,60)"/>
<path d="M0 0 C3 1 3 1 4.24267578 3.16137695 C4.6395459 4.09425537 5.03641602 5.02713379 5.4453125 5.98828125 C6.10080078 7.51291992 6.10080078 7.51291992 6.76953125 9.06835938 C7.21683594 10.13892578 7.66414062 11.20949219 8.125 12.3125 C8.58003906 13.37146484 9.03507813 14.43042969 9.50390625 15.52148438 C13.13720523 24.05488539 13.13720523 24.05488539 14 28 C13.34 28.33 12.68 28.66 12 29 C8.37 20.75 4.74 12.5 1 4 C-0.65 5.65 -2.3 7.3 -4 9 C-2.94124926 5.59687262 -1.99097846 2.98646769 0 0 Z " fill="#414655" transform="translate(224,75)"/>
<path d="M0 0 C0 0.66 0 1.32 0 2 C0.721875 2.103125 1.44375 2.20625 2.1875 2.3125 C7.76385193 3.67560825 11.32350354 6.80745933 14.89453125 11.16796875 C16 13 16 13 16.0625 16.125 C14.9922568 19.02095219 13.72808253 21.44544322 12 24 C11.01 23.67 10.02 23.34 9 23 C9.3125 21.0625 9.3125 21.0625 10 19 C10.99 18.67 11.98 18.34 13 18 C13 14.29023022 12.97156554 12.07332552 10.43359375 9.26953125 C5.84719083 5.63451524 1.72988117 4.02319307 -4 3 C-4 2.34 -4 1.68 -4 1 C-2 0 -2 0 0 0 Z " fill="#383D4C" transform="translate(194,41)"/>
<path d="M0 0 C0.33 0 0.66 0 1 0 C1 1.98 1 3.96 1 6 C-1.31 7.32 -3.62 8.64 -6 10 C-5.690625 10.86625 -5.38125 11.7325 -5.0625 12.625 C-4.07121077 15.77380108 -3.38095861 18.72375596 -3 22 C-4 23 -4 23 -7.59765625 23.09765625 C-9.08596867 23.0909822 -10.57426432 23.07902183 -12.0625 23.0625 C-12.82111328 23.05798828 -13.57972656 23.05347656 -14.36132812 23.04882812 C-16.24091871 23.0370068 -18.12046899 23.01907078 -20 23 C-20 22.67 -20 22.34 -20 22 C-15.05 21.67 -10.1 21.34 -5 21 C-5.680625 19.5975 -6.36125 18.195 -7.0625 16.75 C-8.28692493 14.22694257 -9.04716074 12.63954566 -8.83984375 9.828125 C-7.77028136 7.49996129 -6.80144988 7.05640322 -4.5 6 C-1.57442749 4.57502849 -1.57442749 4.57502849 -0.0625 1.75 C-0.041875 1.1725 -0.02125 0.595 0 0 Z " fill="#414451" transform="translate(264,83)"/>
<path d="M0 0 C0.33 0.66 0.66 1.32 1 2 C1.66 2 2.32 2 3 2 C3.66 3.65 4.32 5.3 5 7 C4.01 7.33 3.02 7.66 2 8 C1.3503125 9.4540625 1.3503125 9.4540625 0.6875 10.9375 C-1 14 -1 14 -7 16 C-4.69 10.72 -2.38 5.44 0 0 Z " fill="#485F8D" transform="translate(217,78)"/>
<path d="M0 0 C-0.33 0.66 -0.66 1.32 -1 2 C-3.5263765 2.28628332 -5.96566825 2.46717192 -8.5 2.5625 C-13.12221389 2.35294651 -13.12221389 2.35294651 -17 4 C-19.01594582 4.23427778 -21.038474 4.41336124 -23.0625 4.5625 C-24.16722656 4.64628906 -25.27195313 4.73007812 -26.41015625 4.81640625 C-27.26480469 4.87699219 -28.11945313 4.93757813 -29 5 C-27 2 -27 2 -24.70703125 1.26953125 C-16.39208652 -0.04335476 -8.39712313 -0.20648663 0 0 Z " fill="#3F5D9D" transform="translate(265,34)"/>
<path d="M0 0 C0.66 0 1.32 0 2 0 C1.86722656 1.0415625 1.73445313 2.083125 1.59765625 3.15625 C0.83397454 9.26570372 0.13991675 15.38326081 -0.5625 21.5 C-0.70107422 22.70398438 -0.83964844 23.90796875 -0.98242188 25.1484375 C-1.32196137 28.09891863 -1.66114466 31.04944024 -2 34 C-2.33 34 -2.66 34 -3 34 C-3.14069655 22.41598404 -3.17940408 11.23389443 0 0 Z " fill="#474A55" transform="translate(294,35)"/>
<path d="M0 0 C0.05447047 1.41623216 0.09300508 2.83308191 0.125 4.25 C0.14820313 5.03890625 0.17140625 5.8278125 0.1953125 6.640625 C0 9 0 9 -2 13 C-2 9.37 -2 5.74 -2 2 C-5.13384514 3.50459629 -5.13384514 3.50459629 -8 6 C-8.50125283 9.66857722 -8.50125283 9.66857722 -8 13 C-8.99 13.495 -8.99 13.495 -10 14 C-10.72924793 10.95704728 -11.20957469 8.13314163 -11 5 C-8.42001989 0.96417397 -4.73815177 -0.69678702 0 0 Z " fill="#424757" transform="translate(272,63)"/>
<path d="M0 0 C0 4 0 4 -1.375 5.75 C-3 7 -3 7 -5 7 C-5 7.66 -5 8.32 -5 9 C-5.99 8.67 -6.98 8.34 -8 8 C-8.1875 5.125 -8.1875 5.125 -8 2 C-4.77208445 -0.1519437 -3.71599191 -0.20086443 0 0 Z " fill="#596574" transform="translate(262,49)"/>
<path d="M0 0 C0.99 0 1.98 0 3 0 C3 5.94 3 11.88 3 18 C3.66 18 4.32 18 5 18 C6.39431504 20.78863007 6.25660094 22.92078868 6 26 C5.01 26.66 4.02 27.32 3 28 C2.67 25.69 2.34 23.38 2 21 C1.67 21 1.34 21 1 21 C0.87089147 14.25766581 1.202163 7.69613196 2 1 C1.34 0.67 0.68 0.34 0 0 Z " fill="#535E6F" transform="translate(286,49)"/>
<path d="M0 0 C4.83755174 0.68951529 7.27189674 3.95354991 10.5859375 7.28515625 C13.58471636 9.41535677 15.40044874 9.32676042 19 9 C19 7.02 19 5.04 19 3 C21 6 21 6 20.8125 8.0625 C20 10 20 10 17 12 C14.70703125 12.46484375 14.70703125 12.46484375 12 12 C9.6978906 10.24669962 7.73545093 8.57063657 5.6875 6.5625 C4.86282227 5.7880957 4.86282227 5.7880957 4.02148438 4.99804688 C2.65128141 3.69592852 1.32175634 2.35126924 0 1 C0 0.67 0 0.34 0 0 Z " fill="#3E4454" transform="translate(155,37)"/>
<path d="M0 0 C4.2618617 5.23046663 5.26464369 9.25158598 5 16 C4.67 16 4.34 16 4 16 C3.34 13.36 2.68 10.72 2 8 C1.34 8 0.68 8 0 8 C0 9.98 0 11.96 0 14 C-1.65 14.33 -3.3 14.66 -5 15 C-4.01 14.67 -3.02 14.34 -2 14 C-2.02320313 13.32453125 -2.04640625 12.6490625 -2.0703125 11.953125 C-2.08835937 11.06109375 -2.10640625 10.1690625 -2.125 9.25 C-2.14820313 8.36828125 -2.17140625 7.4865625 -2.1953125 6.578125 C-1.99139502 3.8864142 -1.36551721 2.30095026 0 0 Z " fill="#4B5D7F" transform="translate(261,72)"/>
<path d="M0 0 C0.99 0 1.98 0 3 0 C4.4296875 1.4609375 4.4296875 1.4609375 5.875 3.375 C8.3138849 6.39312006 10.1475298 7.98022848 14 9 C14 9.66 14 10.32 14 11 C17.3 11 20.6 11 24 11 C24 11.33 24 11.66 24 12 C16.70571708 12.47485386 11.96068426 12.41090635 6 8 C1.25773196 3.77319588 1.25773196 3.77319588 0 0 Z " fill="#585B66" transform="translate(96,94)"/>
<path d="M0 0 C3 0 3 0 4.6875 1.3125 C6 3 6 3 6 6 C2.7 6.33 -0.6 6.66 -4 7 C-2.68 6.67 -1.36 6.34 0 6 C0 5.34 0 4.68 0 4 C-3.63 4 -7.26 4 -11 4 C-11 3.67 -11 3.34 -11 3 C-7.37 3 -3.74 3 0 3 C0 2.01 0 1.02 0 0 Z " fill="#485D84" transform="translate(253,98)"/>
<path d="M0 0 C2.0078125 0.1328125 2.0078125 0.1328125 5.0078125 1.1328125 C4.6778125 2.1228125 4.3478125 3.1128125 4.0078125 4.1328125 C4.0078125 3.4728125 4.0078125 2.8128125 4.0078125 2.1328125 C3.0178125 2.1328125 2.0278125 2.1328125 1.0078125 2.1328125 C1.0078125 2.7928125 1.0078125 3.4528125 1.0078125 4.1328125 C-1.3671875 6.7578125 -1.3671875 6.7578125 -3.9921875 9.1328125 C-4.6521875 9.1328125 -5.3121875 9.1328125 -5.9921875 9.1328125 C-5.2421875 4.3828125 -5.2421875 4.3828125 -2.9921875 2.1328125 C-4.3121875 1.8028125 -5.6321875 1.4728125 -6.9921875 1.1328125 C-5.11159717 -0.74777783 -2.49328712 0.00920032 0 0 Z " fill="#525D6D" transform="translate(185.9921875,55.8671875)"/>
<path d="M0 0 C0 0.33 0 0.66 0 1 C-1.794375 1.0928125 -1.794375 1.0928125 -3.625 1.1875 C-10.42001657 1.90505375 -16.66907575 4.55948724 -23 7 C-23 6.01 -23 5.02 -23 4 C-7.25512528 -1.92482916 -7.25512528 -1.92482916 0 0 Z " fill="#494D5B" transform="translate(76,40)"/>
<path d="M0 0 C0 0.33 0 0.66 0 1 C-2.64 1.33 -5.28 1.66 -8 2 C-7.34 2.33 -6.68 2.66 -6 3 C-6.66 5.64 -7.32 8.28 -8 11 C-8.28875 10.360625 -8.5775 9.72125 -8.875 9.0625 C-9.82823451 6.84793921 -9.82823451 6.84793921 -12 6 C-12 5.01 -12 4.02 -12 3 C-12.66 2.67 -13.32 2.34 -14 2 C-9.35150485 -0.3992233 -5.08913926 -0.19957409 0 0 Z " fill="#A58F42" transform="translate(125,66)"/>
<path d="M0 0 C1.32 0.99 2.64 1.98 4 3 C3.67 5.31 3.34 7.62 3 10 C2.34 9.01 1.68 8.02 1 7 C-2.08365871 6.7497843 -2.08365871 6.7497843 -5 7 C-3.70700306 4.11562221 -2.34058637 2.12780579 0 0 Z " fill="#3F5EA0" transform="translate(271,57)"/>
<path d="M0 0 C0.66 0.33 1.32 0.66 2 1 C2.59355614 3.64860427 2.74209269 6.29197322 3 9 C1.02 9 -0.96 9 -3 9 C-2.30058404 5.85262818 -1.23921302 2.97411124 0 0 Z " fill="#5F6567" transform="translate(225,55)"/>
<path d="M0 0 C3.43774463 1.14591488 4.17413159 1.95688598 6 5 C6 6.32 6 7.64 6 9 C-0.625 13 -0.625 13 -4 13 C-4.33 13.66 -4.66 14.32 -5 15 C-5 14.01 -5 13.02 -5 12 C-2.36 10.68 0.28 9.36 3 8 C2.5359375 6.8553125 2.5359375 6.8553125 2.0625 5.6875 C1.32106407 3.81210323 0.63771783 1.91315348 0 0 Z " fill="#4A4D58" transform="translate(199,28)"/>
<path d="M0 0 C0.66 0.33 1.32 0.66 2 1 C1.48964169 5.3890815 0.47785723 8.33708062 -2 12 C-2.99 11.67 -3.98 11.34 -5 11 C-4.6875 9.0625 -4.6875 9.0625 -4 7 C-3.01 6.67 -2.02 6.34 -1 6 C-0.67 4.02 -0.34 2.04 0 0 Z " fill="#2E3343" transform="translate(208,53)"/>
<path d="M0 0 C0.94875 0.309375 1.8975 0.61875 2.875 0.9375 C7.50938425 2.27928271 12.20552041 2.63342007 17 3 C17 3.33 17 3.66 17 4 C14.54220024 4.22126178 12.08472352 4.42750395 9.625 4.625 C8.57699219 4.72167969 8.57699219 4.72167969 7.5078125 4.8203125 C5.67630889 4.96119739 3.83687252 4.98761659 2 5 C1.34 4.34 0.68 3.68 0 3 C0 2.01 0 1.02 0 0 Z " fill="#656872" transform="translate(237,103)"/>
<path d="M0 0 C-4.7842494 3.1894996 -8.22424557 4.26863974 -14 4 C-14 3.01 -14 2.02 -14 1 C-9.27685687 0.22887459 -4.78478822 -0.09764874 0 0 Z " fill="#505461" transform="translate(93,116)"/>
<path d="M0 0 C0 0.66 0 1.32 0 2 C-2.31 2.33 -4.62 2.66 -7 3 C-7.33 4.65 -7.66 6.3 -8 8 C-8.99 8.33 -9.98 8.66 -11 9 C-10.14875108 5.80781657 -9.5084683 3.52600169 -7.1875 1.125 C-4.60734493 -0.20193689 -2.86336051 -0.23861338 0 0 Z " fill="#3E5A95" transform="translate(286,29)"/>
<path d="M0 0 C0.66 0 1.32 0 2 0 C1.67 1.65 1.34 3.3 1 5 C-4.28 5 -9.56 5 -15 5 C-15 4.67 -15 4.34 -15 4 C-10.05 3.67 -5.1 3.34 0 3 C0 2.01 0 1.02 0 0 Z " fill="#4C505C" transform="translate(259,101)"/>
<path d="M0 0 C1.32 0.66 2.64 1.32 4 2 C1.03 4.475 1.03 4.475 -2 7 C-2 6.34 -2 5.68 -2 5 C-3.32 4.67 -4.64 4.34 -6 4 C-4.02 2.68 -2.04 1.36 0 0 Z " fill="#4D5D78" transform="translate(204,75)"/>
<path d="M0 0 C2.64 0 5.28 0 8 0 C9.35439668 2.70879335 9.06501451 5.00933268 9 8 C8.34 8 7.68 8 7 8 C6.38125 6.576875 6.38125 6.576875 5.75 5.125 C3.9959869 1.99283376 3.29148243 1.13499394 0 0 Z " fill="#3F5E9E" transform="translate(83,62)"/>
<path d="M0 0 C0.33 0.66 0.66 1.32 1 2 C1.66 2 2.32 2 3 2 C3.66 3.65 4.32 5.3 5 7 C4.01 7 3.02 7 2 7 C1.67 6.34 1.34 5.68 1 5 C0.01 6.485 0.01 6.485 -1 8 C-1.66 8 -2.32 8 -3 8 C-1.125 2.25 -1.125 2.25 0 0 Z " fill="#626A73" transform="translate(217,78)"/>
<path d="M0 0 C0.66 0 1.32 0 2 0 C2.33 0.99 2.66 1.98 3 3 C3.99 3.66 4.98 4.32 6 5 C4.68 5 3.36 5 2 5 C2 6.65 2 8.3 2 10 C0.04224922 7.06337384 -0.56073149 5.4262944 -1 2 C-0.67 1.34 -0.34 0.68 0 0 Z " fill="#4F5D74" transform="translate(249,83)"/>
<path d="M0 0 C0 2 0 4 0 6 C-1.65 6.66 -3.3 7.32 -5 8 C-5.33 6.35 -5.66 4.7 -6 3 C-4.02 2.01 -2.04 1.02 0 0 Z " fill="#4C5F83" transform="translate(196,34)"/>
<path d="M0 0 C1.46726798 3.81489674 0.43336419 6.29011622 -1 10 C-1.66 10 -2.32 10 -3 10 C-3 10.66 -3 11.32 -3 12 C-3.66 12 -4.32 12 -5 12 C-3.68938409 7.76570244 -2.05643741 3.92592596 0 0 Z " fill="#5A5C66" transform="translate(222,27)"/>
<path d="M0 0 C0.99 0 1.98 0 3 0 C3 2.31 3 4.62 3 7 C1.68 7 0.36 7 -1 7 C-1.04254356 5.00045254 -1.04080783 2.99958364 -1 1 C-0.67 0.67 -0.34 0.34 0 0 Z " fill="#31384B" transform="translate(94,85)"/>
<path d="M0 0 C3.97674419 3.85623679 3.97674419 3.85623679 4.04296875 7.11328125 C3.7798228 9.08863015 3.39718314 11.04718291 3 13 C2.67 13 2.34 13 2 13 C1.66127487 11.58461283 1.32925376 10.16762037 1 8.75 C0.814375 7.96109375 0.62875 7.1721875 0.4375 6.359375 C0 4 0 4 0 0 Z " fill="#4D5468" transform="translate(105,50)"/>
<path d="M0 0 C0 1.98 0 3.96 0 6 C-1.32 6 -2.64 6 -4 6 C-4 4.35 -4 2.7 -4 1 C-2 0 -2 0 0 0 Z " fill="#848486" transform="translate(192,88)"/>
<path d="M0 0 C2.67927341 4.01891012 2.15601248 6.24161923 2 11 C1.01 11.33 0.02 11.66 -1 12 C-0.67 8.04 -0.34 4.08 0 0 Z " fill="#3F5D9E" transform="translate(135,75)"/>
<path d="M0 0 C0.66 0.33 1.32 0.66 2 1 C2 2.98 2 4.96 2 7 C1.67 7 1.34 7 1 7 C0.67 9.31 0.34 11.62 0 14 C-0.33 14 -0.66 14 -1 14 C-1.02694851 12.04174127 -1.04637218 10.08337774 -1.0625 8.125 C-1.07410156 7.03445312 -1.08570313 5.94390625 -1.09765625 4.8203125 C-1 2 -1 2 0 0 Z " fill="#4A5A75" transform="translate(135,71)"/>
<path d="M0 0 C2.0625 0.4375 2.0625 0.4375 4 1 C2.71937515 2.7074998 1.38232443 4.37373596 0 6 C-0.66 6 -1.32 6 -2 6 C-1.125 1.125 -1.125 1.125 0 0 Z " fill="#2D2E39" transform="translate(182,59)"/>
<path d="M0 0 C0.598125 0.226875 1.19625 0.45375 1.8125 0.6875 C1.008125 1.244375 0.20375 1.80125 -0.625 2.375 C-3.42978216 4.90614487 -3.88131595 6.01329134 -4.1875 9.6875 C-4.5175 9.6875 -4.8475 9.6875 -5.1875 9.6875 C-5.5508218 3.26881488 -5.5508218 3.26881488 -3.9375 0.6875 C-2.1875 -0.3125 -2.1875 -0.3125 0 0 Z " fill="#3F5D9C" transform="translate(183.1875,57.3125)"/>
<path d="M0 0 C0.33 0 0.66 0 1 0 C0.54177532 3.46941546 0.10868317 6.67395049 -1 10 C-1.99 9.67 -2.98 9.34 -4 9 C-2.68 6.03 -1.36 3.06 0 0 Z " fill="#515663" transform="translate(213,45)"/>
<path d="M0 0 C0.66 0.33 1.32 0.66 2 1 C2.36923077 8.50769231 2.36923077 8.50769231 0.5 11 C0.005 11.33 -0.49 11.66 -1 12 C-1 11.34 -1 10.68 -1 10 C-1.66 9.67 -2.32 9.34 -3 9 C-1.68 8.67 -0.36 8.34 1 8 C0.67 5.36 0.34 2.72 0 0 Z " fill="#526176" transform="translate(91,62)"/>
<path d="M0 0 C0.66 0 1.32 0 2 0 C0.44499019 3.81684226 -2.03595495 6.19195732 -5 9 C-5.66 8.67 -6.32 8.34 -7 8 C-5.88200014 6.66079162 -4.75538103 5.32877444 -3.625 4 C-2.68527344 2.88625 -2.68527344 2.88625 -1.7265625 1.75 C-1.15679687 1.1725 -0.58703125 0.595 0 0 Z " fill="#C6A743" transform="translate(190,28)"/>
<path d="M0 0 C2 1 2 1 2.625 2.625 C3.12095645 5.7660575 3.06103811 8.82601831 3 12 C2.67 12 2.34 12 2 12 C0.40861915 7.82262526 -0.21278058 4.46839215 0 0 Z " fill="#68696F" transform="translate(263,76)"/>
<path d="M0 0 C0.33 0.66 0.66 1.32 1 2 C1.66 2 2.32 2 3 2 C2.67 5.3 2.34 8.6 2 12 C1.67 12 1.34 12 1 12 C0.855625 10.88625 0.71125 9.7725 0.5625 8.625 C0.21627965 5.17857953 0.21627965 5.17857953 -1 3 C-0.67 2.01 -0.34 1.02 0 0 Z " fill="#465A7F" transform="translate(133,85)"/>
<path d="M0 0 C1.875 0.75 1.875 0.75 2.875 2.75 C0.235 3.08 -2.405 3.41 -5.125 3.75 C-5.125 3.09 -5.125 2.43 -5.125 1.75 C-2.125 -0.25 -2.125 -0.25 0 0 Z " fill="#6F7076" transform="translate(154.125,34.25)"/>
</svg>
